<mxfile host="Electron" agent="Mozilla/5.0 (Macintosh; Intel Mac OS X 10_15_7) AppleWebKit/537.36 (KHTML, like Gecko) draw.io/26.2.2 Chrome/134.0.6998.178 Electron/35.1.2 Safari/537.36" version="26.2.2">
  <diagram name="Page-1" id="72VLYpees21rEOZQXCSc">
    <mxGraphModel dx="1045" dy="1466" grid="1" gridSize="10" guides="1" tooltips="1" connect="1" arrows="1" fold="1" page="1" pageScale="1" pageWidth="827" pageHeight="1169" math="0" shadow="0">
      <root>
        <mxCell id="0" />
        <mxCell id="1" parent="0" />
        <mxCell id="DRgmASofz9rqL_db7nKw-1" value="" style="shape=image;verticalLabelPosition=bottom;labelBackgroundColor=default;verticalAlign=top;aspect=fixed;imageAspect=0;image=data:image/png,iVBORw0KGgoAAAANSUhEUgAAB3QAAANKCAYAAAByOX/kAAAMTWlDQ1BJQ0MgUHJvZmlsZQAASImVVwdYU8kWnltSIQQIhCIl9CaISAkgJYQWQHoRRCUkAUKJMSGo2NFFBdcuIljRVRDFtgKy2FBXXVkUu2tZLCisrIsFu/ImBNBlX/nefN/c+e8/Z/4559yZe+8AQO/gS6W5qCYAeZJ8WWxIAGticgqL1AWowBhWS6DHF8ilnOjoCADLUPv38uYGQJTtVUel1j/7/2vREorkAgCQaIjThXJBHsQ/AoA3C6SyfACIUshbzMiXKvE6iHVk0EGIq5U4U4WblThdhS8P2MTHciF+DABZnc+XZQKg0Qt5VoEgE+rQYbTAWSIUSyD2h9g3L2+aEOIFENtCGzgnXanPTv9GJ/NvmunDmnx+5jBWxTJQyIFiuTSXP+v/TMf/Lnm5iqE5bGBVz5KFxipjhnl7nDMtXInVIX4nSY+MglgbABQXCwfslZiZpQhNUNmjtgI5F+YMMCEeL8+N4w3ysUJ+YDjERhBnSHIjIwZtijLEwUobmD+0XJzPi4dYH+JqkTwobtDmpGxa7NC8NzJkXM4g38WXDfig1P+iyEngqPQx7SwRb1AfcyrMik+CmApxYIE4MRJiDYgj5Tlx4YM2qYVZ3MghG5kiVhmLJcQykSQkQKWPlWXIgmMH7ffkyYdix05miXmRg/hKflZ8qCpX2GMBf8B/GAvWK5JwEoZ0RPKJEUOxCEWBQarYcbJIkhCn4nF9aX5ArGosbi/NjR60xwNEuSFK3hzieHlB3NDYgny4OFX6eLE0Pzpe5Sdekc0Pi1b5gx8AEYALAgELKGBNB9NANhC39TT0wDtVTzDgAxnIBCLgOMgMjUga6JHAaxwoBH9CJALy4XEBA70iUAD5zyNYJSce5lRXR5Ax2KdUyQFPIM4D4SAX3isGlCTDHiSCx5AR/8MjPqwCGEMurMr+f88PsV8ZDmQiBhnF0Iws+pAlMYgYSAwlBhPtcEPcF/fGI+DVH1YXnI17DsXx1Z7whNBOeEi4Tugg3J4qLpKN8HIC6ID6wYP5Sf82P7g11HTDA3AfqA6VcSZuCBxxVzgPB/eDM7tBljvotzIrrBHaf4vgmyc0aEdxpqAUPYo/xXbkSA17DbdhFWWuv82Pytf04Xxzh3tGzs/9JvtC2IaPtMSWYoexc9gp7ALWjDUAFnYCa8RasWNKPLziHg+suKHZYgf8yYE6I9fM1yerzKTcuda52/mTqi9fNDNfuRm506SzZOLMrHwWB34xRCyeROA0muXi7OIKgPL7o3q9vYoZ+K4gzNav3KLfAfA50d/f/9NXLuwEAAc94Cvh6FfOlg0/LWoAnD8qUMgKVByuvBDgm4MOd58BMAEWwBbG4wLcgTfwB0EgDESBeJAMpkDvs+A6l4EZYA5YCIpBKVgF1oMKsBXsANVgHzgEGkAzOAV+BhfBZXAd3IGrpxM8A73gDfiIIAgJoSEMxAAxRawQB8QFYSO+SBASgcQiyUgakolIEAUyB1mElCJrkApkO1KDHESOIqeQC0g7cht5gHQjL5EPKIaqozqoMWqNjkHZKAcNR+PRyWgmOh0tRBejK9BytArdi9ajp9CL6HW0A32G9mEAU8OYmBnmiLExLhaFpWAZmAybh5VgZVgVVoc1wed8FevAerD3OBFn4CzcEa7gUDwBF+DT8Xn4crwCr8br8TP4VfwB3ot/IdAIRgQHgheBR5hIyCTMIBQTygi7CEcIZ+Fe6iS8IRKJTKIN0QPuxWRiNnE2cTlxM3E/8SSxnfiI2EcikQxIDiQfUhSJT8onFZM2kvaSTpCukDpJ78hqZFOyCzmYnEKWkIvIZeQ95OPkK+Sn5I8UTYoVxYsSRRFSZlFWUnZSmiiXKJ2Uj1Qtqg3VhxpPzaYupJZT66hnqXepr9TU1MzVPNVi1MRqC9TK1Q6onVd7oPZeXVvdXp2rnqquUF+hvlv9pPpt9Vc0Gs2a5k9LoeXTVtBqaKdp92nvNBgaTho8DaHGfI1KjXqNKxrP6RS6FZ1Dn0IvpJfRD9Mv0Xs0KZrWmlxNvuY8zUrNo5o3Nfu0GFpjtaK08rSWa+3RuqDVpU3SttYO0hZqL9beoX1a+xEDY1gwuAwBYxFjJ+Mso1OHqGOjw9PJ1inV2afTptOrq63rqpuoO1O3UveYbgcTY1ozecxc5krmIeYN5gc9Yz2OnkhvmV6d3hW9t/qj9P31Rfol+vv1r+t/MGAZBBnkGKw2aDC4Z4gb2hvGGM4w3GJ41rBnlM4o71GCUSWjDo36zQg1sjeKNZpttMOo1ajP2MQ4xFhqvNH4tHGPCdPE3yTbZJ3JcZNuU4apr6nYdJ3pCdM/WLosDiuXVc46w+o1MzILNVOYbTdrM/tobmOeYF5kvt/8ngXVgm2RYbHOosWi19LUcoLlHMtay9+sKFZsqyyrDVbnrN5a21gnWS+xbrDustG34dkU2tTa3LWl2frZTretsr1mR7Rj2+XYbba7bI/au9ln2VfaX3JAHdwdxA6bHdpHE0Z7jpaMrhp901HdkeNY4Fjr+MCJ6RThVOTU4PR8jOWYlDGrx5wb88XZzTnXeafznbHaY8PGFo1tGvvSxd5F4FLpcm0cbVzwuPnjGse9cHVwFblucb3lxnCb4LbErcXts7uHu8y9zr3bw9IjzWOTx022DjuavZx93pPgGeA537PZ872Xu1e+1yGvv7wdvXO893h3jbcZLxq/c/wjH3Mfvs92nw5flm+a7zbfDj8zP75fld9Dfwt/of8u/6ccO042Zy/neYBzgCzgSMBbrhd3LvdkIBYYElgS2BakHZQQVBF0P9g8ODO4Nrg3xC1kdsjJUEJoeOjq0Js8Y56AV8PrDfMImxt2Jlw9PC68IvxhhH2ELKJpAjohbMLaCXcjrSIlkQ1RIIoXtTbqXrRN9PTon2KIMdExlTFPYsfGzok9F8eImxq3J+5NfED8yvg7CbYJioSWRHpiamJN4tukwKQ1SR0Tx0ycO/FismGyOLkxhZSSmLIrpW9S0KT1kzpT3VKLU29Mtpk8c/KFKYZTcqccm0qfyp96OI2QlpS2J+0TP4pfxe9L56VvSu8VcAUbBM+E/sJ1wm6Rj2iN6GmGT8aajK5Mn8y1md1ZflllWT1irrhC/CI7NHtr9tucqJzdOf25Sbn788h5aXlHJdqSHMmZaSbTZk5rlzpIi6Ud072mr5/eKwuX7ZIj8snyxnwd+KPfqrBVfKd4UOBbUFnwbkbijMMztWZKZrbOsp+1bNbTwuDCH2bjswWzW+aYzVk458Fcztzt85B56fNa5lvMXzy/c0HIguqF1IU5C38tci5aU/R6UdKipsXGixcsfvRdyHe1xRrFsuKbS7yXbF2KLxUvbVs2btnGZV9KhCW/lDqXlpV+Wi5Y/sv3Y78v/75/RcaKtpXuK7esIq6SrLqx2m919RqtNYVrHq2dsLZ+HWtdybrX66euv1DmWrZ1A3WDYkNHeUR540bLjas2fqrIqrheGVC5f5PRpmWb3m4Wbr6yxX9L3VbjraVbP2wTb7u1PWR7fZV1VdkO4o6CHU92Ju489wP7h5pdhrtKd33eLdndUR1bfabGo6Zmj9GelbVoraK2e2/q3sv7Avc11jnWbd/P3F96ABxQHPjjYNrBG4fCD7UcZh+u+9Hqx01HGEdK6pH6WfW9DVkNHY3Jje1Hw462NHk3HfnJ6afdzWbNlcd0j608Tj2++Hj/icITfSelJ3tOZZ561DK15c7piaevnYk503Y2/Oz5n4N/Pn2Oc+7EeZ/zzRe8Lhz9hf1Lw0X3i/Wtbq1HfnX79Uibe1v9JY9LjZc9Lze1j28/fsXvyqmrgVd/vsa7dvF65PX2Gwk3bt1MvdlxS3ir63bu7Re/Ffz28c6Cu4S7Jfc075XdN7pf9bvd7/s73DuOPQh80Pow7uGdR4JHzx7LH3/qXPyE9qTsqenTmi6Xrubu4O7Lf0z6o/OZ9NnHnuI/tf7c9Nz2+Y9/+f/V2juxt/OF7EX/y+WvDF7tfu36uqUvuu/+m7w3H9+WvDN4V/2e/f7ch6QPTz/O+ET6VP7Z7nPTl/Avd/vz+vulfBl/4FcAA8qjTQYAL3cDQEsGgAHPjdRJqvPhQEFUZ9oBBP4TVp0hB4o7AHXwnz6mB/7d3ATgwE4ArKE+PRWAaBoA8Z4AHTduuA6d5QbOncpChGeDbZGf0/PSwb8pqjPpN36PbIFS1RWMbP8FNtSDHGd320MAAACKZVhJZk1NACoAAAAIAAQBGgAFAAAAAQAAAD4BGwAFAAAAAQAAAEYBKAADAAAAAQACAACHaQAEAAAAAQAAAE4AAAAAAAAAkAAAAAEAAACQAAAAAQADkoYABwAAABIAAAB4oAIABAAAAAEAAAd0oAMABAAAAAEAAANKAAAAAEFTQ0lJAAAAU2NyZWVuc2hvdI0pUx4AAAAJcEhZcwAAFiUAABYlAUlSJPAAAAHXaVRYdFhNTDpjb20uYWRvYmUueG1wAAAAAAA8eDp4bXBtZXRhIHhtbG5zOng9ImFkb2JlOm5zOm1ldGEvIiB4OnhtcHRrPSJYTVAgQ29yZSA2LjAuMCI+CiAgIDxyZGY6UkRGIHhtbG5zOnJkZj0iaHR0cDovL3d3dy53My5vcmcvMTk5OS8wMi8yMi1yZGYtc3ludGF4LW5zIyI+CiAgICAgIDxyZGY6RGVzY3JpcHRpb24gcmRmOmFib3V0PSIiCiAgICAgICAgICAgIHhtbG5zOmV4aWY9Imh0dHA6Ly9ucy5hZG9iZS5jb20vZXhpZi8xLjAvIj4KICAgICAgICAgPGV4aWY6UGl4ZWxZRGltZW5zaW9uPjg0MjwvZXhpZjpQaXhlbFlEaW1lbnNpb24+CiAgICAgICAgIDxleGlmOlBpeGVsWERpbWVuc2lvbj4xOTA4PC9leGlmOlBpeGVsWERpbWVuc2lvbj4KICAgICAgICAgPGV4aWY6VXNlckNvbW1lbnQ+U2NyZWVuc2hvdDwvZXhpZjpVc2VyQ29tbWVudD4KICAgICAgPC9yZGY6RGVzY3JpcHRpb24+CiAgIDwvcmRmOlJERj4KPC94OnhtcG1ldGE+CggJm1oAAAAcaURPVAAAAAIAAAAAAAABpQAAACgAAAGlAAABpQAAa7myAMLwAABAAElEQVR4AezdB5wEVX0H8AERRUFEECKgKHaNBYy9914iarCRRI1R8ROjsUYT1Bi70Rh7Q0U0okaJxiTG2IVEscVesKJiLwkliG72v2Rutt3t23d7e+/tfecj7OztezNvvv/Dezu/3Zldev2lsRAgQIAAAQIECBAgQIAAAQIECBAgQIAAAQIECBAgQIBAcQK7CHSLq4kBESBAgAABAgQIECBAgAABAgQIECBAgAABAgQIECBAYCAg0PWLQIAAAQIECBAgQIAAAQIECBAgQIAAAQIECBAgQIAAgUIFBLqFFsawCBAgQIAAAQIECBAgQIAAAQIECBAgQIAAAQIECBAgIND1O0CAAAECBAgQIECAAAECBAgQIECAAAECBAgQIECAAIFCBQS6hRbGsAgQIECAAAECBAgQIECAAAECBAgQIECAAAECBAgQICDQ9TtAgAABAgQIECBAgAABAgQIECBAgAABAgQIECBAgACBQgUEuoUWxrAIECBAgAABAgQIECBAgAABAgQIECBAgAABAgQIECAg0PU7QIAAAQIECBAgQIAAAQIECBAgQIAAAQIECBAgQIAAgUIFBLqFFsawCBAgQIAAAQIECBAgQIAAAQIECBAgQIAAAQIECBAgIND1O0CAAAECBAgQIECAAAECBAgQIECAAAECBAgQIECAAIFCBQS6hRbGsAgQIECAAAECBAgQIECAAAECBAgQIECAAAECBAgQICDQ9TtAgAABAgQIECBAgAABAgQIECBAgAABAgQIECBAgACBQgUEuoUWxrAIECBAgAABAgQIECBAgAABAgQIECBAgAABAgQIECAg0PU7QIAAAQIECBAgQIAAAQIECBAgQIAAAQIECBAgQIAAgUIFBLqFFsawCBAgQIAAAQIECBAgQIAAAQIECBAgQIAAAQIECBAgIND1O0CAAAECBAgQIECAAAECBAgQIECAAAECBAgQIECAAIFCBQS6hRbGsAgQIECAAAECBAgQIECAAAECBAgQIECAAAECBAgQICDQ9TtAgAABAgQIECBAgAABAgQIECBAgAABAgQIECBAgACBQgUEuoUWxrAIECBAgAABAgQIECBAgAABAgQIECBAgAABAgQIECAg0PU7QIAAAQIECBAgQIAAAQIECBAgQIAAAQIECBAgQIAAgUIFBLqFFsawCBAgQIAAAQIECBAgQIAAAQIECBAgQIAAAQIECBAgIND1O0CAAAECBAgQIECAAAECBAgQIECAAAECBAgQIECAAIFCBQS6hRbGsAgQIECAAAECBAgQIECAAAECBAgQIECAAAECBAgQICDQ9TtAgAABAgQIECBAgAABAgQIECBAgAABAgQIECBAgACBQgUEuoUWxrAIEKhf4LOf/Wxztatdrf4DcQQECBAgQIAAAQIECBAgQIAAAQLFCzgXVXyJDJAAAQLZAgLdbDodCRAgsLGASfTGPl4lQIAAAQIECBAgQIAAAQIECBBYnIBzUYuztCUCBAiUJiDQLa0ixkOAwMoImESvTCkdCAECBAgQIECAAAECBAgQIECgeAHnooovkQESIEAgW0Cgm02nIwECBDYWMIne2MerBAgQIECAAAECBAgQIECAAAECixNwLmpxlrZEgACB0gQEuqVVxHgIEFgZAZPolSmlAyFAgAABAgQIECBAgAABAgQIFC/gXFTxJTJAAgQIZAsIdLPpdCRAgMDGAibRG/t4lQABAgQIECBAgAABAgQIECBAYHECzkUtztKWCBAgUJqAQLe0ihgPAQIrI2ASvTKldCAECBAgQIAAAQIECBAgQIAAgeIFnIsqvkQGSIAAgWwBgW42nY4ECBDYWMAkemMfrxIgQIAAAQIECBAgQIAAAQIECCxOwLmoxVnaEgECBEoTEOiWVhHjIUBgZQRMolemlA6EAAECBAgQIECAAAECBAgQIFC8gHNRxZfIAAkQIJAtINDNptORAAECGwuYRG/s41UCBAgQIECAAAECBAgQIECAAIHFCTgXtThLWyJAgEBpAgLd0ipiPAQIrIyASfTKlNKBECBAgAABAgQIECBAgAABAgSKF3AuqvgSGSABAgSyBQS62XQ6EiBAYGMBk+iNfbxKgAABAgQIECBAgAABAgQIECCwOAHnohZnaUsECBAoTUCgW1pFjIcAgZURMIlemVI6EAIECBAgQIAAAQIECBAgQIBA8QLORRVfIgMkQIBAtoBAN5tORwIECGwsYBK9sY9XCRAgQIAAAQIECBAgQIAAAQIEFifgXNTiLG2JAAECpQkIdEuriPEQILAyAibRK1NKB0KAAAECBFZG4Oc//3nzhS98oTn99NOb/fbbr7na1a7W7LPPPkUf3xlnnNF861vfas4555xmr732ag499NBml112KXrMNQ+Od83VM3YCBAgQ2OkCzkXt9N8Ax0+AwCoLCHRXuboFHtt73vOeJv755S9/2Rx44IHNAx/4wOaSl7xkgSM9b0hx0uijH/1oE5OhGO9d7nKXZvfddx+8+MUvfrH58Ic/3PzqV79qDj/88Ob6179+scdhYNsjYBK9Pe72SoAAAQIECEwKfOMb32j+4A/+oPnQhz408uJuu+3W/MM//ENz5zvfeeTnpTyJ+XgEz//93/+9NqSHPexhzYtf/OK154teOeGEE5qTTjqpOfvss5tDDjmkefCDH9zsu+++i95NkdtL8d6K93TedxX562BQBAgQIFChgHNRFRatsCGblxVWEMMhMCQg0B3CsLqxwGmnnda84Q1vGDmZsnGPprnXve7VXOMa1xg0+8UvftFc/OIXHwSgbb94/c1vfnP7tLjH+93vfs3xxx+/Nq5nPOMZzeMf//jm3HPPbS52sYuNWHzlK19pLn/5y6+1tULAJNrvAAECBAjsJIFf//rXg3nTBz7wgebUU09tIkCMb1Huv//+zWGHHdbc7na3G4SG5z//+XcSSxHH+r3vfa+58pWvPPhQ5bQBxfw25rklLv/zP/8z+Fbu8Ni28j1EfGjzKle5yvDumsc+9rHNs571rJGfreqTWd5b9Z7O+65V/Y1yXAQIECCwbAHnovLFP/e5zzXHHntsE/OdeG9zvvOdr7nQhS7U3P3ud29udrOb5W+4sp7mZZUVzHB3lIBAd0eVe3MHe5/73Kd505veNNdGjj766OZFL3rRoM/b3/72wR/A4Q0cdNBBTQTFpS6XuMQlBpeja8f3u7/7u4NvMJx88snNDW5wg/bHg8fjjjuuiT94FgKtgEl0K+GRAAECBFZdIOZ5EXp97Wtf2/BQL3WpSzUR+F7mMpfZsJ0XFyvwiEc8onnhC1+47kaPOeaY5slPfvK6r2/nC7MCxkWP7QUveEHzyEc+cmSzMe+Pq/bshGWW91a9p/O+ayf8djlGAgQIEFiGgHNR+co3uclNBldjHN9CXKklPiDZXrVx/PVVe25etmoVdTyrJCDQXaVqbvGxXPva125OOeWUufZy1FFHNa973esGfd7//vc3t7jFLUb6xyXMvvnNb478rKQnl73sZZuvf/3ra0OKUDu+sftf//Vfa988bl9861vf2hxxxBHtU48EBpfqjvvSWQgQIECAwCoLREB761vfenAFk5TjfOlLX9o85CEPSWm6pW0+//nPN7/3e7/X/PCHP2x+85vfDC7rGx/Qiznvqi1xj9y4d+7wcstb3nIQrH/kIx8ZhPF/+Id/OPxyMeuzAsaUgc5T69e+9rXNuMVNb3rTwQcRUvZVe5tZ3qnv6eYxD7PNvu+ad3+118n4CRAgQIDAegIC3fVkNv75t7/97ebSl7500+v1pjY88cQTB7fim/riiv1ws/OyFeNwOATKEuj/n5SFQJLA7/zO78RftLn+6X8bYG3b/evv9/qXXB7p/4QnPGHt9RJXnvjEJ66Nt3+ZjV7//mKDYfZP+vWuetWrrr0Wx/XTn/60xEMwpm0U6Af/27h3uyZAgAABAlsv8KMf/Whifjdrvtj/BuTWDyxhD/1vGq7N5doxv+Y1r0noWVeTX/7ylxPH2f/GaTUH0b937sT4+5dcnmv889T6+9//fu+CF7zgyD5f9rKXzbW/mhvP8k59TzePeXht9n3XvPuruUbGToAAAQIENhJwLmojnfVf699eY2T+174/aB+PPPLI9Tuv2CubnZetGIfDIVCUgG/o9v9f2ZImMO0buk9/+tMH95Jdbwu3ve1tB59ual+PexB8+tOfbs4444zm4IMPbq5+9au3LxX7ePrppw++0RCXm9h7773Xxhn3UohPb8U3Oi55yUvumMturAFYmSngU5EziTQgQIAAgcoFTjjhhMG3XIcP4yIXucjg8r5xz9yYJ8U35+K2HW984xubs88+u3n5y1/ePPjBDx7usi3r73jHO5q4ncbw0g90J76dOfx6jetf+MIXmv4HEUeG/pjHPKZ59rOfPfKzUp/M+sZoyrjnrXX/gwqDK630w8vBt5iveMUrpuxmJdqkeKe8p5vXPPA2874rZ38rUTAHQYAAAQIExgScixoDSXx62GGHDc5Zr9c87qUbV/a58IUvvF6Tlfr5ZuZlKwXhYAgUJiDQLawgJQ9nWqAb/+d+wAEHLG3Y/U/MD8LVK1zhCoMb08+z4/5HKQb3O4g+ce+D/ifv5+nexImL+MPd/5bDoG9cLnrPPfecaxvjjbfzeGIsYXLqqacOLpF4uctdrtltt93Gh+j5JgRMojeBpysBAgQIVCHw6Ec/unne8543Mta4B2ncs3V8+e53vzsIdu9973s3Bx100PjLC33+gx/8YDDvixMu8SHCOAEzviwiANqKuVTcjuTMM88cfGBwr732Gh/24Hl8ODLaxXz20EMPbXbZZZep7eKHH/vYx5rrXve6I6//1V/9VfOkJz1p5GfLfpI6D04JGGeNfRG1nrWP9vV4rxC3bPmt3/qtwT/tz3MfU52mbT/n/csivGMsmzHPGfdm9jfNzs8IECBAgECtAs5FzV+5L33pS82Vr3zlmR3jA6rxXmY7lpT3N9PG5Xz4pMpWvIeb3IufENgigf4vsIVAksC0Sy73A92kvtHo3HPP7d3+9rfv9b/N2tt///17/QCx17+H2lr/X/3qV70b3/jGvf43YXv9EyC9/r2qev1vwfb6IWrvoQ99aK8f4q5d+mKPPfboXe961+u9973vXes/beV///d/e8997nN7/fuY9qJP/z+jwT+77rrrYHvXvOY1e8P/3OMe9xjZzEc/+tHegx70oF7/RNla33Yb8Rg//9u//dte/9smI/3iSYnHE+OKsR5zzDG961//+r1+IL12XLvvvnuv/43p3sMe9rDez372s2hq2aSAy9xsElB3AgQIECheoH/v3LW5RDtH6n8DN2ncj3vc43qXucxlBvPCmP/FtuJyrtOW0047rXf44Yf3DjzwwME8Mdb7V30ZadoPLnt3uMMdRuY3Maa4bUY/0Oz17406aP+0pz1tMP/rh8oTY485aDs3vNa1rtX7yle+MrKPeLKZudR688Pvfe97gzln/75dI2O6+c1v3vuP//iPtTF87Wtf68V89fznP/9au4te9KK9/rehe/0P6a21i5W4bFwcy/g2w6T/4ca144y5Xyz9e+z24lLM4dL/wOZgrt7/ZvXgtfF/9b9h3bvUpS41qF08PupRjxppst5x5szrZ10COHb8k5/8pHfnO995bUzxfiMui5da67bm0x5veMMb9vonRkeOb/hJ3IolLskcv3th0f53EI/9q/sMfvfisnX9kH6422B9kU7txjfz/iW2Mct71nu6VPPx/75yx527v9bLIwECBAgQWDUB56Lmr2icJx2ew/U/LNl75jOfOfKzeP1Od7rTuhtf5Fy63Unq+5u2ffvofPjo+f1w2cx7uNbVI4ESBOIbehYCSQKbDXRnnRyY9vpHPvKRiRMjw39g4wTdcCg8fCD9by0MThIOt5+1Hn+w25MtcRJoVvv29f7N4nv9T5IP737qyZDtPJ4Y3Oc+97neNa5xjZnHFSfB3ve+940cjyfzC5hEz2+mBwECBAjUJXDf+953Yl7R/3R7LwLKWUsEZe1cqn3sf8tuardp97Q67rjj1tpOO+HSbnP4sf/p+951rnOdif0Otxlef8Mb3rC2j1jZ7Fxq2nz3gx/84CCoHt7v8Hrcz/UDH/hA781vfnOv/03jdcceIe1w+Bsfjhzeznrr8UHLWCIQHm/zp3/6p4PXxv81/mHHmF8OL9OOM3cePG1bw/fQjUD1jne848TYL3/5y89V6/FjH34eJ/mmLf3br/RudatbTex7uG+7HuP50Ic+NLKZaceW6xQb3uz7l9jGtDENe896Pee/r82MO2d/cZwWAgQIECCwqgLORc1f2eEvEcXc7UY3utHgw47x5Zd2LheP8aHK+CDhtGWRc+nY/jzvb4bH43x40xs+vx82m30PN+xrncB2Cwh0t7sCFe1/OwLd+Cbt8B/Oaevxzdv4tP/wEp92j2/wTmu/0c9if2eddVYvTs5s1G7aa/Et4uFl2smO7TqeGFcc00YnAcePKdqmnIwdPmbrowIm0aMenhEgQIDA6gmsd6Ihvkn7yle+cnDFkvWO+ilPecrEfOue97zn1Obj87p4kx4nK2KJD6GlzLFirhPfAoxv647Pe9Z7fvzxx6+NZxFzqc3MD1OOMa7A0i43u9nNko4zvo0byyJPQm3mOMfn9dO2NRwwPuc5z5k4zrB617veNVet1/sdiJ//+Z//ecu69hjz5H322Wdi3xttJ04Cxres22XasaXUedr7n0W8f4lxTRvTsPes1+f972uz4553f629RwIECBAgsKoCzkXNV9lPfOITE/O5uBpjLPGN3PG53Ste8YqpO1jkXHre9zftgJwP767MGef3Y1nEe7jW1yOBEgQEuiVUoZIxTAt0+/cN6MUl18b/echDHtL7zne+M3Jks978T3t9/I/mes+f/OQnj+zrLW95y8Qf3LgU3etf//rewx/+8N5+++038fqVrnSl3l3vetfBdsb/CMelie9yl7v04lsKcUm5uBzb+Fji5Ev7xyI2UtLxxHjuf//7T4z5Fre4Re9Vr3pV79WvfnVv2rdkoq6WfAGT6Hw7PQkQIECgDoHPfOYzg0saj8+L2udxCdq4/UXMi8aX/n1GB5+ebtvGYwRV/XuQjjSN4CwC3OF2EfC2S9weY/i1aPvYxz6294//+I+Dyyz//u//fq9/L91Bm1NOOaX3R3/0RyPth/sOr8eVYD71qU+1u1nIXGoz88PhsW20Hpdmi+Xoo49OOs641HUs4/Pf2Mciv6G70ZiHXxuf108zawPGk08+eeTy0+12XvSiFw2OKbXWbb/1Hp/whCcMtjf8rwc84AFTfeMb6tMuv9xue/gWL9OOrW0363Hcabx+Oe9f4vimjan1Tnk91bz972uz4553f8M1tE6AAAECBFZRwLmo+ar66Ec/emROF+8lvvvd7w428rrXvW7ktZifxS1Rpi3jc5pomzuXnvf9TTse58Ob3vD5/XBxPrz97fC4KgIC3VWp5BKOY1qgu9GJhvFPLOWcHGi3H38Av/zlL/e++tWvTv3m7fg9DOKebG3feIx7NMXl2NrlxBNPHHk92sQJyXaJTzQdfPDBvTghE98uOeOMM9qXBo9xb99pl1f7whe+sNZu2vG2Y1r28Xzyk5+cOBF6t7vdbXCP4nbAccxx37R2jPEYJ1rGLyXdtvc4W8AkeraRFgQIECBQv8AjH/nIkfnD8FyiXY/L+r7kJS+ZONhp3yKNEyfDS9xeo91O+/j85z9/rcn47SRuectbrr3Wrvz4xz/u/f3f//3gHr0x5/nRj340+EBbu7328W/+5m8Gr8XrcR+sdlnUXGq9+WGcOIrQML51fNJJJw3uE9yOafgx2j3pSU8afNI8Lt978YtffMLmxS9+8WDYca/TOI53v/vdE20i8I7X4p+4x1YsizwJtd5xxrHMOw+etq0IGH/605/2DjnkkKnHNjig/r9Sa91axOP73//+iW2Of0M3gv7xb9LGJfnGL9H97Gc/e2JbYRC/T7FMO7a23vM6LeL9y3pjmifQTTVv//va7Ljn3d8A3r8IECBAgMAKCzgXlV7cOFcct51r51/xGJdbbpeYr4xfdjnmgG3g27aLx0XOped9f9OOw/nw0fP7i3oP1/p6JFCCgEC3hCpUMoZ5A9328hTt4U07YTHr5ED8IX3e857XbmLwGPc+i5NZw39sDz/88JE24/fResxjHjPyepy4Gu4f63FfsnmWY489dmIb73znO9c2Me14t+t44hP848cb9w8YX+JE53i79oTTeFvPZwuYRM820oIAAQIE6hc455xzkr/1GnO/M888c+2gp82nbnvb2669Hiu3uc1tRuYnMQ887bTT1tocdthhI69f5CIX6cV9SGctb3/720f6xRzoNa95zdRui5pLrTc/fOELXziy32khdhz3y1/+8pF20W987jb+bdL//M//nGjztKc9bWQ78WSRJ6HWO86cef20bcWluePDiePHHlcPGv4QZ3uQ89T6s5/97MR2xwPdxz/+8RNtIoCdttz5zneeaBv1jWXascUx5ThN2/f4z6b99zb8/mW9Mc16zzb8ervPeczbPus9pox7kftbbxx+ToAAAQIEahBwLiq9SvEByfH55Pj57GmXXY4PgY4vi5xL576/cT589Pz+ot7DjdfacwLbKSDQ3U79yvY9b6D7pje9aeQIp52wGH7zP+31+EM0bTnooING/uBe4hKXGGk2fjmF8cD39NNP7+22224j20g58RcnLOOyf/FN3Gkn0IaPuaTjud/97jdyrDFZiW9r/PM///PIP09/+tMn2p1wwgkjtp6kC5hEp1tpSYAAAQL1C7zxjW/sXeYyl5mYS4yfJHnoQx+6drAxX2ovh9y2iznaD37wg0Gb+FR83He0fS0eb3zjG6/1j5Vp85wIP2MeGZddjm/wTVvmCYCm7SNnLjVtfjh+pZkYa8w1h4851qfdXziuMDPeLi5BO7yUEujmzuunmY0fczyPb3u33zYePv5Yn6fWKYHuEUccMeH+xS9+cXy3g+fxodHx8bYfNp12bLlOU3fe/+E8719iG9PGNOs92/Dr7TjmMW/7DD/OO+7N7m9439YJECBAgEDNAs5FpVcv3pcMz9PGPzgaW5p22eVrX/vaEztZZKA77b1Hyvsb58ObkQ/2TnPMeQ83UWw/ILCNAgLdbcSvbdfTAt23ve1tvfg00/g/EY6Onzxb1MmBcIuAdvgPblxubnh51rOeNfJ6tI0TJzGp+fznP9+76U1vOvJ6/FEcv19bbO9rX/va4LJ2ccnmi13sYhPfDB4eQ6zPCnSnneyI/Wz18Vz3utcdOd7xcW/0/AUveEEM0ZIhYBKdgaYLAQIECFQtEIHaq171qt5VrnKVdeceMe/6xCc+sXaccY/b8bnI3/3d3w1eP/744ydea++P2m4g5p2xzfFttM/jMmpxuefxb27OEwAtai41az7cHlNcIrodf/sYTuPL97///Yl2cc+t4aWUQDd3HjzNrDUZfozflfWWeWqdEuhe/epXH3GPDyHELVmmLdO2F4FwLNOOLdep3fdm3r+kjCl1zPOYx343O+5599d6eSRAgAABAqsm4FxUWkXjvPV+++03Mqe74Q1vONH5Zz/72cRll2MOGrcFHF4WGejmvr9xPnz0/P6i3sMN19k6ge0WEOhudwUq2v+0QDe+6Zq6zHrzP+v14f1c73rXG/mDOx7ofuc73+ntvffeI22GT/iMr9/lLncZ3vxgPcLq8W+EjPcbf54b6G718Uy7v9r42Nd7Hpc4s+QJmETnuelFgAABAvULRHga39gdv6pKO9+Ikw3tMu2epde//vUHL9/jHvcYmc+d73zn602bf8YlauO1dvvTHu9whzsMvq3Y7neeAGhRc6nU+W7cH3b8GKYFuvFN5vF2tQW6s+bB08zGjzmeR3A/7QOaUe95aj0tgB2/5PKee+454n7AAQe0v1YTj1//+tdH2sZYb3e72w3aTTu29QLdWU6xwc2+f4ltzBrTrNdjG7HMY76Icc+zv/NG6N8ECBAgQGA1BZyLSqtrXLVw2pwyrgI5/s+0dk996lNHdrTIQDc2nPP+xvnw0fP7i3oPN1JoTwhss4BAd5sLUNPuawp04xJdV73qVaf+YR7/I3zggQf2fvSjH42U4n3ve9/UT1+1feMkzrSwd6sC3c0ez6GHHjphESdYZ/1zi1vcYu2ShyNAniQJmEQnMWlEgAABAissECcVLn3pS0/MQ+LyV+0S4e+0NnHZ4fHgLOYm6y0nnXRS75a3vOXEvtr5WzzGfZTaZZ4AaFFzqdQwrJRA9+EPf3jLNfI47nGNa1xj5PXU44xOs4LKaduKq+3E1XOGaxvrD3vYw0bG0T6Zp9YpgW6c5Bve9x577NHuauJx2vbuc5/7DNpNO7bcQHcR719iULPGNOv1FiDVfFHjTt1fOz6PBAgQIEBgVQWci0qr7FFHHTUynxue26WsX/nKVx7Z0bRAN3cu3W543vc3mz1/vIh5WepcMY5x1vuAzR7P+HuWqOusc+HxuvPh7W+gxxIFBLolVqXQMdUU6D7hCU+Y+Uc5Atmjjz56amAZJ1nG/3jHzz71qU/1zj777EGFpn2Sa6sC3c0ez61udauR47nABS4wcdnBQn/tqh6WSXTV5TN4AgQIEFiQwBOf+MSReUjMsYYD3djNX/7lX060iW/pjs/HXv7yl88cVQTBf/Inf9Lba6+9JvpHcNwu0wKgV7/61e3LI4+LmkulnuDYjkD3m9/85oTXkUceOeLQPhm/V/KyA90IPaNW478fcentD3/4w+0w1x7nqfW0AHb8G7pxOb7xfX/ve99b29/wyoknnjjR9phjjhk0Sf19iMazTngt4v1L7GfWmGa9HtuIJdV8UeNO3d95o/NvAgQIECCwugLORc2u7VlnndW7yEUuMjFHG5/fzXr+6U9/em1ni5xLr230/1dS399s9vzxIuZlqXPFOLRZ89vNHs+i3sON18NzAtspINDdTv3K9l1ToHu5y11u5I/yO9/5zt573/vewYmfCF0//vGP937+85+vW4Hxk1Rxn6zx+64tM9Dd7PH88R//8YhHTEhOPvnkdY/fC4sRMIlejKOtECBAgEC5Aq997Wt7p5xyyoYDjHB1/GTIX//1X4/0iU+0b3Qf3Ogf9ykdv6rKyEbGnsRJlUMOOWRk37GNuM9vLNMCoPHgrt3kouZSqSc4tiPQPeOMM0aswvyKV7xiS7D2+IxnPGOi3XYEujE3j2/qjv9uxZjbD2C2g56n1imB7v3vf/+J/T7/+c9vdzfyePe7332i7XHHHTdok/r7EI1nnfBaxPuX2M+sMc16PbYRS6r5osadur/zRuffBAgQIEBgdQWci5pd27e+9a0T87P44s+FLnShdf+ZdnuXxz3ucWs7W+Rcem2jYyuz3t9s9vzxIuZlqXPFOLRZ89vNHs+i3sONlcFTAtsqINDdVv66dl5LoBv3zho/sXPHO96x90//9E+Db9h++ctf7n3729/eMNCNP+DD24g/aMOBbnySa9rJma34hu4ijidOMA0fT6zf4AY36P3iF7+Y+kv4q1/9qvfRj36095WvfGXq636YJmASneakFQECBAjUKTAcOh5xxBG9D37wgyPzpTiqd7zjHVNvY/Fv//ZvEwd9k5vcZGK+Mjx/ue1tbzvRJ37wile8ohcnZX79619PvH7ve997ZJu777772n10P/ShD428FvuKbwXHyZhYYj7ULouaS6We4Bi2bQ22+h66cazTvqnw3Oc+d8AQY1rvU/LbEejGoL70pS/14sozrVH7OB7Mz1PrlED3Oc95zsQ+999//95nPvOZgVX7rze84Q0T93a+4AUvOHgvEm1Sfx+i7awTXot4/5IyptQxp5ovatyp+4tjtBAgQIAAgVUWcC5qdnXjvUs7b2wf44tAGy3xgdS2bfsYHx4dPl+8qLl0zvubRZw/XsS8LHWuGNYbzW8XcTyLeg+30e+F1wgsW0Cgu2zxivc3LdCNS9nF/avW+2f42xez/g991uvDdBv9H360G/82RvuHdvwxTrzc/OY3H5wEHP4DfJ3rXGfij/QjHvGIXty74C1vecvEH5x2u1sR6C7ieCK4PeCAAyaO6eCDD+495SlP6cW4TzjhhN4LX/jC3n3ve99ee9P4u93tbsPs1ucUMImeE0xzAgQIEKhKYNplxWJuFR8aiw/TxTcl2znS8GPMSeIN+vjymte8Zmr7tm+8Pm1p76Ua+3vmM585uCrLxz72sd7Tn/70wbd62/7xGPPZdpk2/mizzz779K573esOgsJ/+Zd/GTRf1Fwqdb67XYFuHPewV7seNYswvH0+/rhdgW4U56lPferEuOKb2LMugRfHMK3WKYFu/P5Om1vHe6P40OcjH/nI3vgl3lqzCMXbJfX3IdrPev+ziPcvsZ9ZY5r1emwjltT/vhY17tT9nTc6/yZAgAABAqsr4FzUxrWNeX18wK6dm8XjvvvuO/JhzmlbiC+9DPdp1z/ykY+sNV/UXDr3/Y3z4W8dCdgX9R5urcBWCBQgINAtoAi1DGFaoNv+8Vrv8a53veva4c168z/r9bUN9VdmndCITzKtN6b1fh5jbUPdP/uzP5u7f2x3qwLdzR5P2E27z9h6Fu3Pb3e72w2zW59TwCR6TjDNCRAgQKAqgR//+Mdzz5fiUmbDJz2GDzhCsgtf+MJTtxlh4s9+9rPh5mvr0z4J385lxh/jcsHtcu655/YOOuigqftr+8UH+dplEXOp1PnudgW6cSng9tjnedzOQDcuoX2Vq1xlYtzXuta1elHjWFJqHZcPjyUl0I12L33pSyf2OcssPvAw/GGG1N+H2N+s9z+LeP8S+5k1plmvxzZiSTGP/74WNe7U/Z03Ov8mQIAAAQKrK+Bc1Ma1ff3rXz8xh3vAAx6wcaf/f/Wa17zmRN+jjz56re+i5tK57282e/54EfOy1LlioM2a3272eGIfi3gPF9uxEChFQKBbSiUqGMeNbnSjiT9as05axCfU22XW/6HPer3dTjzO+j/897///XOPNY4lvqEaS4zlCle4wobbiE/+j98/YasC3c0eTxxTXIYw7mE3PuaNanif+9wnuloyBUyiM+F0I0CAAIFqBOaZH0ZY24Zm6x3gtHuTxlzlTne603pder/927+94ZytnevElUfaD++1G3vlK1+5Yd/hQHcRc6nU+e52BbpxmenxeXbr1z5e8pKXHHwTun0ej9sZ6EYt40MC0+7BHCfs2mVWreNqNbGkBroRIMZ901Ln1uE6fjuT1N+HGNd4XeKKOsPLIt6/xPZmjWnW68NjmmUe/30tatyx35T9DY/POgECBAgQWEUB56I2ruq97nWvifn/u971ro07/f+rcQWg4TlwrF/qUpda67uouXTu+5vNnj9exLxsnrnirPntZo8nCrOI93BrBbZCoAABgW4BRahlCHGZu7iM2Pgfro2eP/7xj187vPj0fHwqfbj9ox71qOTX1xr2V+55z3uObOewww5be/m0004bXD5teD+Xv/zle29+85sH36A99thjB58Ej58Nt4n129/+9mvbifvsHnXUUb1dd911ol38YT355JN7j370o9dei3bvec971vrPOt61hv2VZRxPu79PfvKTvRvf+MYTlyActjjwwAN7ceP4uHSZJV/AJDrfTk8CBAgQqEPg7LPP7r3kJS/pxVxsWqAW84sIcuPT3j/84Q9nHtQnPvGJqduJT7uvt5xyyim9uL/uesHaoYce2nvZy17Wi7GOLxHwvvjFL546x41L6n7nO98Z79LbzFwqdX545pln9vbbb7+1eWY4PvGJT5wYS5wwicsGD8/jjjnmmJF2X/3qV3t77LHHWpuYs653+eroGE7xLYX48OLwduOeWvFhzajjpz71qV5827p9ffz+xqnHGfvbaB4cr6duK8LV4d/BWH/Vq14Vmxgss2odc/9YouZ77rnn2rHFdl70ohcNXpv2r49//OODsHXaJamj72Uve9le3IYmAuDxJfXYot8sp2iz2fcvsY1ZY5r1emyjXWaZt/99LWLcsc/U/bXj80iAAAECBFZRwLmojas6PqeK9woxv0lZvvGNb4zME2MuHO8ZhpdFzKVz3t84H96szd+Hz++3tdnMe7h2Gx4JlCCwSwyi/38+FgJLEei/yW763zho+ic0mv7JvaYfEI/sd9brw41//vOfN2eddVZzgQtcoOnfW2Dtpf7Jrqb/iam15/2TUc0Xv/jF5nKXu9zaz2KlfwKh6X+KauRnl770pZv+H+eRn/VPWjVf/vKXmx/84AdN/+RO07/P08j+4njOOeecpn85jKZ/omukb4nH0w4wahDH2j/J1/RPBjb9k3tN/54RTT/obvrfvGibedyEQP8bHs3Vrna1TWxBVwIECBAgUI9A/xLMzec///nBnClG3Q8kB/Ovgw8+eDDPSDmS2Eb/MsiDuVXbvn+PqybmY+Pzxvb19jHmM/1AuDn99NObfrg7mK/F3C7+iecbLf0TL03/25PNqaeeOmgWYzj88MObmEeut+TOpVLnh9HuJz/5SdP/VPlgDhrz0GlLvB7z0Y3a9b8t0PQvWR0f5h3MWfsB77RNjfwsTGIu861vfau5xCUuMZgD90PctTYxD+/fl6qJn8UccnxJPc7ot968vt1m6rZiTP1LGg+6xe/L+Nw8XkipddQ2TGO/0+b47biGH6NP/P586UtfGtQi3mf0LwU9dQzD/VKPLfrMcmq3u5n3L7GNWWOa9Xo7jvYxxTzabnbc8+6vbe+RAAECBAiskoBzURtXM+YxMafqh7hN/wN5g/cM/Q/hbdxp6NV27h1zv3ivcNGLXnQwHx5qMljd7Fw6NjLP+xvnw7sKxPu/8fP77au57+Ha/h4JbLeAQHe7K2D/Cxe44x3v2Lz73e9e227/WwtNnByMwHJ46X8SfHCSMU5wtcttbnOb5l//9V/bp0U8rtrxFIG6pEGYRC8J2m4IECBAYGUEnve85zX9K6CMHE//W6HN2972tpGfeUKAAAECBAgQIECAwKSAc1GTJjvhJ6t2/njVjmcn/A46xuUICHSX42wvSxS43/3u1xx//PEje7z1rW/dHHHEEc3Vr371waem+pdZaJ75zGdOfFrnqU99avMXf/EXI323+8mqHc92ey5z/ybRy9S2LwIECBBYBYErXelKgyujDB9L/7YZTf9eV8M/sk6AAAECBAgQIECAwBQB56KmoOyAH63a+eNVO54d8CvoEJckINBdErTdLE+gf0+w5oEPfODcO4xLop100knN3nvvPXffreywasezlValbdskurSKGA8BAgQIlCzwwQ9+sLnZzW42MsS4RUdchnXapXNHGnpCgAABAgQIECBAgMDglhlu/7XzfhFW7fzxqh3PzvuNdMRbJSDQ3SpZ2902gbg32IMe9KAm/o8/dTn00EObf//3fx/cYy21z7LardrxLMuthP0IdEuogjEQIECAQC0CRx11VHPccceNDPfII49s3vSmN438zBMCBAgQIECAAAECBKYLOBc13WXVf7pq549X7XhW/ffP8S1PQKC7PGt7WqJA3OA+7oV77LHHNu9617uas846a2Lv++67bxOfWHvIQx4yuBxz3Mi+1GXVjqdU50WPyyR60aK2R4AAAQKrLHDDG95wcLWU9hjjW7nvec97mvi5hQABAgQIECBAgACB2QLORc02WtUWq3b+eNWOZ1V/7xzXcgUEusv1trdtEIj/8z/ttNOaH//4x4Ngd5999mkOOeSQJi7hV+OyasdTYw1Sx2wSnSqlHQECBAgQaJozzzyzOfXUU5tzzz23ufjFL94ccMABzfnPf340BAgQIECAAAECBAgkCjgXlQi14s1W7fzxqh3Piv/6ObwtFBDobiGuTRMgsLMFTKJ3dv0dPQECBAgQIECAAAECBAgQIEBgmQLORS1T274IECCwXAGB7nK97Y0AgR0kYBK9g4rtUAkQIECAAAECBAgQIECAAAEC2yzgXNQ2F8DuCRAgsIUCAt0txLVpAgR2toBJ9M6uv6MnQIAAAQIECBAgQIAAAQIECCxTwLmoZWrbFwECBJYrINBdrre9ESCwgwRMondQsR0qAQIECBAgQIAAAQIECBAgQGCbBZyL2uYC2D0BAgS2UECgu4W4Nk2AwM4WMIne2fV39AQIECBAgAABAgQIECBAgACBZQo4F7VMbfsiQIDAcgUEusv1tjcCBHaQgEn0Diq2QyVAgAABAgQIECBAgAABAgQIbLOAc1HbXAC7J0CAwBYKCHS3ENemCRDY2QIm0Tu7/o6eAAECBAgQIECAAAECBAgQILBMAeeilqltXwQIEFiugEB3ud72RoDADhIwid5BxXaoBAgQIECAAAECBAgQIECAAIFtFnAuapsLYPcECBDYQgGB7hbi2jQBAjtbwCR6Z9ff0RMgQIAAAQIECBAgQIAAAQIElingXNQyte2LAAECyxUQ6C7X294IENhBAibRO6jYDpUAAQIECBAgQIAAAQIECBAgsM0CzkVtcwHsngABAlsoINDdQlybJkBgZwuYRO/s+jt6AgQIECBAgAABAgQIECBAgMAyBZyLWqa2fREgQGC5AgLd5XrbGwECBAgQIECAAAECBAgQIECAAAECBAgQIECAAAECBJIFBLrJVBoSIECAAAECBAgQIECAAAECBAgQIECAAAECBAgQIEBguQIC3eV62xsBAgQIECBAgAABAgQIECBAgAABAgQIECBAgAABAgSSBQS6yVQaEiBAgAABAgQIECBAgAABAgQIECBAgAABAgQIECBAYLkCAt3letsbAQIECBAgQIAAAQIECBAgQIAAAQIECBAgQIAAAQIEkgUEuslUGhIgQIAAAQIECBAgQIAAAQIECBAgQIAAAQIECBAgQGC5AgLd5XrbGwECBAgQIECAAAECBAgQIECAAAECBAgQIECAAAECBJIFBLrJVBoSIECAAAECBAgQIECAAAECBAgQIECAAAECBAgQIEBguQIC3eV62xsBAgQIECBAgAABAgQIECBAgAABAgQIECBAgAABAgSSBQS6yVQaEiBAgAABAgQIECBAgAABAgQIECBAgAABAgQIECBAYLkCAt3letsbAQIECBAgQIAAAQIECBAgQIAAAQIECBAgQIAAAQIEkgUEuslUGhIgQIAAAQIECBAgQIAAAQIECBAgQIAAAQIECBAgQGC5AgLd5XrbGwECBAgQIECAAAECBAgQIECAAAECBAgQIECAAAECBJIFBLrJVBoSIECAAAECBAgQIECAAAECBAgQIECAAAECBAgQIEBguQIC3eV62xsBAgQIECBAgAABAgQIECBAgAABAgQIECBAgAABAgSSBQS6yVQaEiBAgAABAgQIECBAgAABAgQIECBAgAABAgQIECBAYLkCAt3letsbAQIECBAgQIAAAQIECBAgQIAAAQIECBAgQIAAAQIEkgUEuslUGhIgQIAAAQIECBAgQIAAAQIECBAgQIAAAQIECBAgQGC5AgLd5XrbGwECBAgQIECAAAECBAgQIECAAAECBAgQIECAAAECBJIFBLrJVBoSIECAAAECBAgQIECAAAECBAgQIECAAAECBAgQIEBguQIC3eV62xsBAgQIECBAgAABAgQIECBAgAABAgQIECBAgAABAgSSBQS6yVQaEiBAgAABAgQIECBAgAABAgQIECBAgAABAgQIECBAYLkCAt3letsbAQIECBAgQIAAAQIECBAgQIAAAQIECBAgQIAAAQIEkgUEuslUGhIgQIAAAQIECBAgQIAAAQIECBAgQIAAAQIECBAgQGC5AgLd5XrbGwECBAgQIECAAAECBAgQIECAAAECBAgQIECAAAECBJIFBLrJVBoSIECAAAECBAgQIECAAAECBAgQIECAAAECBAgQIEBguQIC3eV62xsBAgQIECBAgAABAgQIECBAgAABAgQIECBAgAABAgSSBQS6yVQaEiBAgAABAgQIECBAgAABAgQIECBAgAABAgQIECBAYLkCAt3letsbAQIECBAgQIAAAQIECBAgQIAAAQIECBAgQIAAAQIEkgUEuslUGhIgQIAAAQIECBAgQIAAAQIECBAgQIAAAQIECBAgQGC5AgLd5XrbGwECBAgQIECAAAECBAgQIECAAAECBAgQIECAAAECBJIFBLrJVBoSIECAAAECBAgQIECAAAECBAgQIECAAAECBAgQIEBguQIC3eV62xsBAgQIECBAgAABAgQIECBAgAABAgQIECBAgAABAgSSBQS6yVQaEiBAgAABAgQIECBAgAABAgQIECBAgAABAgQIECBAYLkCAt3letsbAQIECBAgQIAAAQIECBAgQIAAAQIECBAgQIAAAQIEkgUEuslUGhIgQIAAAQIECBAgQIAAAQIECBAgQIAAAQIECBAgQGC5AgLd5XrbGwECBAgQIECAAAECBAgQIECAAAECBAgQIECAAAECBJIFBLrJVBoSIECAAAECBAgQIECAAAECBAgQIECAAAECBAgQIEBguQIC3eV62xsBAgQIECBAgAABAgQIECBAgAABAgQIECBAgAABAgSSBQS6yVQaEiBAgAABAgQIECBAgAABAgQIECBAgAABAgQIECBAYLkCAt3letsbAQIECBAgQIAAAQIECBAgQIAAAQIECBAgQIAAAQIEkgUEuslU6zfs9V/6zW/in17z63jsnfc4WO//rP+/wT/rb8ErBAgQIECAAAECBAgQIECAAAECBAgQIECAAAECBOYX2HWXphn80//X+XZtBv/sust567v2f7Zr/2f9JpaKBQS6CyieQHcBiDZBgAABAgQIECBAgAABAgQIECBAgAABAgQIECAwt4BAd26y6joIdDNKds65EeGOLoNv6A6+idtr+l/QPe8bu/2Vwbdz+9/anewx2t8zAgQIECBAgAABAgQIECBAgAABAgQIECBAgAABAvMKxLdv41u45wW7//+N3MG3dvvr8dh/bXzZfTff2R03Kfm5QDejOv9zVj+hHVsisI3wNsLcXv9fg8f+z857LtAd4/KUAAECBAgQIECAAAECBAgQIECAAAECBAgQIEBgAQIRzfavsHzeP2vruwyeR6A7Lbrdc48pKe8CxmITWyMg0M1w/cl//3qyVwS5Yz+NMLddhlbbH3kkQIAAAQIECBAgQIAAAQIECBAgQIAAAQIECBAgsCmB4cA2gt3hZfB07Gfx+r57nW+4mfXCBQS6GQX64S+mBLoZ29GFAAECBAgQIECAAAECBAgQIECAAAECBAgQIECAwLIF9t9boLts883sT6CboSfQzUDThQABAgQIECBAgAABAgQIECBAgAABAgQIECBAoAgBgW4RZUgehEA3maprKNDtLKwRIECAAAECBAgQIECAAAECBAgQIECAAAECBAjUJSDQrateAt2Megl0M9B0IUCAAAECBAgQIECAAAECBAgQIECAAAECBAgQKEJAoFtEGZIHIdBNpuoaCnQ7C2sECBAgQIAAAQIECBAgQIAAAQIECBAgQIAAAQJ1CQh066qXQDejXgLdDDRdCBAgQIAAAQIECBAgQIAAAQIECBAgQIAAAQIEihAQ6BZRhuRBCHSTqbqGAt3OwhoBAgQIECBAgAABAgQIECBAgAABAgQIECBAgEBdAgLduuol0M2ol0A3A00XAgQIECBAgAABAgQIECBAgAABAgQIECBAgACBIgQEukWUIXkQAt1kqq6hQLezsEaAAAECBAgQIECAAAECBAgQIECAAAECBAgQIFCXgEC3rnoJdDPqJdDNQNOFAAECBAgQIECAAAECBAgQIECAAAECBAgQIECgCAGBbhFlSB6EQDeZqmso0O0srBEgQIAAAQIECBAgQIAAAQIECBAgQIAAAQIECNQlINCtq14C3Yx6CXQz0HQhQIAAAQIECBAgQIAAAQIECBAgQIAAAQIECBAoQkCgW0QZkgch0E2m6hoKdDsLawQIECBAgAABAgQIECBAgAABAgQIECBAgAABAnUJCHTrqpdAN6NeAt0MNF0IECBAgAABAgQIECBAgAABAgQIECBAgAABAgSKEBDoFlGG5EEIdJOpuoYC3c7CGgECBAgQIECAAAECBAgQIECAAAECBAgQIECAQF0CAt266iXQzaiXQDcDTRcCBAgQIECAAAECBAgQIECAAAECBAgQIECAAIEiBAS6RZQheRAC3WSqrqFAt7OwRoAAAQIECBAgQIAAAQIECBAgQIAAAQIECBAgUJeAQLeuegl0M+ol0M1A04UAAQIECBAgQIAAAQIECBAgQIAAAQIECBAgQKAIAYFuEWVIHoRAN5mqayjQ7SysESBAgAABAgQIECBAgAABAgQIECBAgAABAgQI1CUg0K2rXgLdjHoJdDPQdCFAgAABAgQIECBAgAABAgQIECBAgAABAgQIEChCQKBbRBmSByHQTabqGgp0OwtrBAgQIECAAAECBAgQIECAAAECBAgQIECAAAECdQkIdOuql0A3o14C3Qw0XQgQIECAAAECBAgQIECAAAECBAgQIECAAAECBIoQEOgWUYbkQQh0k6m6hgLdzsIaAQIECBAgQIAAAQIECBAgQIAAAQIECBAgQIBAXQIC3brqJdDNqJdANwNNFwIECBAgQIAAAQIECBAgQIAAAQIECBAgQIAAgSIEBLpFlCF5EALdZKquoUC3s7BGgAABAgQIECBAgAABAgQIECBAgAABAgQIECBQl4BAt656CXQz6iXQzUDThQABAgQIECBAgAABAgQIECBAgAABAgQIECBAoAgBgW4RZUgehEA3maprKNDtLKwRIECAAAECBAgQIECAAAECBAgQIECAAAECBAjUJSDQrateAt2Megl0M9B0IUCAAAECBAgQIECAAAECBAgQIECAAAECBAgQKEJAoFtEGZIHIdBNpuoaCnQ7C2sECBAgQIAAAQIECBAgQIAAAQIECBAgQIAAAQJ1CQh066qXQDejXgLdDDRdCBAgQIAAAQIECBAgQIAAAQIECBAgQIAAAQIEihAQ6BZRhuRBCHSTqbqGAt3OwhoBAgQIECBAgAABAgQIECBAgAABAgQIECBAgEBdAgLduuol0M2ol0A3A00XAgQIECBAgAABAgQIECBAgAABAgQIECBAgACBIgQEukWUIXkQAt1kqq6hQLezsEaAAAECBAgQIECAAAECBAgQIECAAAECBAgQIFCXgEC3rnoJdDPqJdDNQNOFAAECBAgQIECAAAECBAgQIECAAAECBAgQIECgCAGBbhFlSB6EQDeZqmso0O0srBEgQIAAAQIECBAgQIAAAQIECBAgQIAAAQIECNQlINCtq14C3Yx6CXQz0HQhQIAAAQIECBAgQIAAAQIECBAgQIAAAQIECBAoQkCgW0QZkgch0E2m6hoKdDsLawQIECBAgAABAgQIECBAgAABAgQIECBAgAABAnUJCHTrqpdAN6NeAt0MNF0IECBAgAABAgQIECBAgAABAgQIECBAgAABAgSKEBDoFlGG5EEIdJOpuoYC3c7CGgECBAgQIECAAAECBAgQIECAAAECBAgQIECAQF0CAt266iXQzaiXQDcDTRcCBAgQIECAAAECBAgQIECAAAECBAgQIECAAIEiBAS6RZQheRAC3WSqrqFAt7OwRoAAAQIECBAgQIAAAQIECBAgQIAAAQIECBAgUJeAQLeuegl0M+ol0M1A04UAAQIECBAgQIAAAQIECBAgQIAAAQIECBAgQKAIAYFuEWVIHoRAN5mqayjQ7SysESBAgAABAgQIECBAgAABAgQIECBAgAABAgQI1CUg0K2rXgLdjHoJdDPQdCFAgAABAgQIECBAgAABAgQIECBAgAABA+27owAAK3lJREFUAgQIEChCQKBbRBmSByHQTabqGgp0OwtrBAgQIECAAAECBAgQIECAAAECBAgQIECAAAECdQkIdOuql0A3o14C3Qw0XQgQIECAAAECBAgQIECAAAECBAgQIECAAAECBIoQEOgWUYbkQQh0k6m6hgLdzsIaAQIECBAgQIAAAQIECBAgQIAAAQIECBAgQIBAXQIC3brqJdDNqJdANwNNFwIECBAgQIAAAQIECBAgQIAAAQIECBAgQIAAgSIEBLpFlCF5EALdZKquoUC3s7BGgAABAgQIECBAgAABAgQIECBAgAABAgQIECBQl4BAt656CXQz6iXQzUDThQABAgQIECBAgAABAgQIECBAgAABAgQIECBAoAgBgW4RZUgehEA3maprKNDtLKwRIECAAAECBAgQIECAAAECBAgQIECAAAECBAjUJSDQrateAt2Megl0M9B0IUCAAAECBAgQIECAAAECBAgQIECAAAECBAgQKEJAoFtEGZIHIdBNpuoaCnQ7C2sECBAgQIAAAQIECBAgQIAAAQIECBAgQIAAAQJ1CQh066qXQDejXgLdDDRdCBAgQIAAAQIECBAgQIAAAQIECBAgQIAAAQIEihAQ6BZRhuRBCHSTqbqGAt3OwhoBAgQIECBAgAABAgQIECBAgAABAgQIECBAgEBdAgLduuol0M2ol0A3A00XAgQIECBAgAABAgQIECBAgAABAgQIECBAgACBIgQEukWUIXkQAt1kqq6hQLezsEaAAAECBAgQIECAAAECBAgQIECAAAECBAgQIFCXgEC3rnoJdDPqJdDNQNOFAAECBAgQIECAAAECBAgQIECAAAECBAgQIECgCAGBbhFlSB6EQDeZqmso0O0srBEgQIAAAQIECBAgQIAAAQIECBAgQIAAAQIECNQlINCtq14C3Yx6CXQz0HQhQIAAAQIECBAgQIAAAQIECBAgQIAAAQIECBAoQkCgW0QZkgch0E2m6hoKdDsLawQIECBAgAABAgQIECBAgAABAgQIECBAgAABAnUJCHTrqpdAN6NeAt0MNF0IECBAgAABAgQIECBAgAABAgQIECBAgAABAgSKEBDoFlGG5EEIdJOpuoYC3c7CGgECBAgQIECAAAECBAgQIECAAAECBAgQIECAQF0CAt266iXQzaiXQDcDTRcCBAgQIECAAAECBAgQIECAAAECBAgQIECAAIEiBAS6RZQheRAC3WSqrqFAt7OwRoAAAQIECBAgQIAAAQIECBAgQIAAAQIECBAgUJeAQLeuegl0M+ol0M1A04UAAQIECBAgQIAAAQIECBAgQIAAAQIECBAgQKAIAYFuEWVIHoRAN5mqayjQ7SysESBAgAABAgQIECBAgAABAgQIECBAgAABAgQI1CUg0K2rXgLdjHoJdDPQdCFAgAABAgQIECBAgAABAgQIECBAgAABAgQIEChCQKBbRBmSByHQTabqGgp0OwtrBAgQIECAAAECBAgQIECAAAECBAgQIECAAAECdQkIdOuql0A3o14C3Qw0XQgQIECAAAECBAgQIECAAAECBAgQIECAAAECBIoQEOgWUYbkQQh0k6m6hgLdzsIaAQIECBAgQIAAAQIECBAgQIAAAQIECBAgQIBAXQIC3brqJdDNqJdANwNNFwIECBAgQIAAAQIECBAgQIAAAQIECBAgQIAAgSIEBLpFlCF5EALdZKquoUC3s7BGgAABAgQIECBAgAABAgQIECBAgAABAgQIECBQl4BAt656CXQz6iXQzUDThQABAgQIECBAgAABAgQIECBAgAABAgQIECBAoAgBgW4RZUgehEA3maprKNDtLKwRIECAAAECBAgQIECAAAECBAgQIECAAAECBAjUJSDQrateAt2Megl0M9B0IUCAAAECBAgQIECAAAECBAgQIECAAAECBAgQKEJAoFtEGZIHIdBNpuoaCnQ7C2sECBAgQIAAAQIECBAgQIAAAQIECBAgQIAAAQJ1CQh066qXQDejXgLdDDRdCBAgQIAAAQIECBAgQIAAAQIECBAgQIAAAQIEihAQ6BZRhuRBCHSTqbqGAt3OwhoBAgQIECBAgAABAgQIECBAgAABAgQIECBAgEBdAgLduuol0M2ol0A3A00XAgQIECBAgAABAgQIECBAgAABAgQIECBAgACBIgQEukWUIXkQAt1kqq6hQLezsEaAAAECBAgQIECAAAECBAgQIECAAAECBAgQIFCXgEC3rnoJdDPqJdDNQNOFAAECBAgQIECAAAECBAgQIECAAAECBAgQIECgCAGBbhFlSB6EQDeZqmso0O0srBEgQIAAAQIECBAgQIAAAQIECBAgQIAAAQIECNQlINCtq14C3Yx6CXQz0HQhQIAAAQIECBAgQIAAAQIECBAgQIAAAQIECBAoQkCgW0QZkgch0E2m6hoKdDsLawQIECBAgAABAgQIECBAgAABAgQIECBAgAABAnUJCHTrqpdAN6NeAt0MNF0IECBAgAABAgQIECBAgAABAgQIECBAgAABAgSKEBDoFlGG5EEIdJOpuoYC3c7CGgECBAgQIECAAAECBAgQIECAAAECBAgQIECAQF0CAt266iXQzaiXQDcDTRcCBAgQIECAAAECBAgQIECAAAECBAgQIECAAIEiBAS6RZQheRAC3WSqrqFAt7OwRoAAAQIECBAgQIAAAQIECBAgQIAAAQIECBAgUJeAQLeuegl0M+ol0M1A04UAAQIECBAgQIAAAQIECBAgQIAAAQIECBAgQKAIAYFuEWVIHoRAN5mqayjQ7SysESBAgAABAgQIECBAgAABAgQIECBAgAABAgQI1CUg0K2rXgLdjHoJdDPQdCFAgAABAgQIECBAgAABAgQIECBAgAABAgQIEChCQKBbRBmSByHQTabqGgp0OwtrBAgQIECAAAECBAgQIECAAAECBAgQIECAAAECdQkIdOuql0A3o14C3Qw0XQgQIECAAAECBAgQIECAAAECBAgQIECAAAECBIoQEOgWUYbkQQh0k6m6hgLdzsIaAQIECBAgQIAAAQIECBAgQIAAAQIECBAgQIBAXQIC3brqJdDNqJdANwNNFwIECBAgQIAAAQIECBAgQIAAAQIECBAgQIAAgSIEBLpFlCF5EALdZKquoUC3s7BGgAABAgQIECBAgAABAgQIECBAgAABAgQIECBQl4BAt656CXQz6iXQzUDThQABAgQIECBAgAABAgQIECBAgAABAgQIECBAoAgBgW4RZUgehEA3maprKNDtLKwRIECAAAECBAgQIECAAAECBAgQIECAAAECBAjUJSDQrateAt2Megl0M9B0IUCAAAECBAgQIECAAAECBAgQIECAAAECBAgQKEJAoFtEGZIHIdBNpuoaCnQ7C2sECBAgQIAAAQIECBAgQIAAAQIECBAgQIAAAQJ1CQh066qXQDejXgLdDDRdCBAgQIAAAQIECBAgQIAAAQIECBAgQIAAAQIEihAQ6BZRhuRBCHSTqbqGAt3OwhoBAgQIECBAgAABAgQIECBAgAABAgQIECBAgEBdAgLduuol0M2ol0A3A00XAgQIECBAgAABAgQIECBAgAABAgQIECBAgACBIgQEukWUIXkQAt1kqq6hQLezsEaAAAECBAgQIECAAAECBAgQIECAAAECBAgQIFCXgEC3rnoJdDPqJdDNQNOFAAECBAgQIECAAAECBAgQIECAAAECBAgQIECgCAGBbhFlSB6EQDeZqmso0O0srBEgQIAAAQIECBAgQIAAAQIECBAgQIAAAQIECNQlINCtq14C3Yx6CXQz0HQhQIAAAQIECBAgQIAAAQIECBAgQIAAAQIECBAoQkCgW0QZkgch0E2m6hoKdDsLawQIECBAgAABAgQIECBAgAABAgQIECBAgAABAnUJCHTrqpdAN6NeAt0MNF0IECBAgAABAgQIECBAgAABAgQIECBAgAABAgSKEBDoFlGG5EEIdJOpuoYC3c7CGgECBAgQIECAAAECBAgQIECAAAECBAgQIECAQF0CAt266iXQzaiXQDcDTRcCBAgQIECAAAECBAgQIECAAAECBAgQIECAAIEiBAS6RZQheRAC3WSqrqFAt7OwRoAAAQIECBAgQIAAAQIECBAgQIAAAQIECBAgUJeAQLeuegl0M+ol0M1A04UAAQIECBAgQIAAAQIECBAgQIAAAQIECBAgQKAIAYFuEWVIHoRAN5mqayjQ7SysESBAgAABAgQIECBAgAABAgQIECBAgAABAgQI1CUg0K2rXgLdjHoJdDPQdCFAgAABAgQIECBAgAABAgQIECBAgAABAgQIEChCQKBbRBmSByHQTabqGgp0OwtrBAgQIECAAAECBAgQIECAAAECBAgQIECAAAECdQkIdOuql0A3o14C3Qw0XQgQIECAAAECBAgQIECAAAECBAgQIECAAAECBIoQEOgWUYbkQQh0k6m6hgLdzsIaAQIECBAgQIAAAQIECBAgQIAAAQIECBAgQIBAXQIC3brqJdDNqJdANwNNFwIECBAgQIAAAQIECBAgQIAAAQIECBAgQIAAgSIEBLpFlCF5EALdZKquoUC3s7BGgAABAgQIECBAgAABAgQIECBAgAABAgQIECBQl4BAt656CXQz6iXQzUDThQABAgQIECBAgAABAgQIECBAgAABAgQIECBAoAgBgW4RZUgehEA3maprKNDtLKwRIECAAAECBAgQIECAAAECBAgQIECAAAECBAjUJSDQrateAt2Megl0M9B0IUCAAAECBAgQIECAAAECBAgQIECAAAECBAgQKEJAoFtEGZIHIdBNpuoaCnQ7C2sECBAgQIAAAQIECBAgQIAAAQIECBAgQIAAAQJ1CQh066qXQDejXgLdDDRdCBAgQIAAAQIECBAgQIAAAQIECBAgQIAAAQIEihAQ6BZRhuRBCHSTqbqGAt3OwhoBAgQIECBAgAABAgQIECBAgAABAgQIECBAgEBdAgLduuol0M2ol0A3A00XAgQIECBAgAABAgQIECBAgAABAgQIECBAgACBIgQEukWUIXkQAt1kqq6hQLezsEaAAAECBAgQIECAAAECBAgQIECAAAECBAgQIFCXgEC3rnoJdDPqJdDNQNOFAAECBAgQIECAAAECBAgQIECAAAECBAgQIECgCAGBbhFlSB6EQDeZqmso0O0srBEgQIAAAQIECBAgQIAAAQIECBAgQIAAAQIECNQlINCtq14C3Yx6CXQz0HQhQIAAAQIECBAgQIAAAQIECBAgQIAAAQIECBAoQkCgW0QZkgch0E2m6hoKdDsLawQIECBAgAABAgQIECBAgAABAgQIECBAgAABAnUJCHTrqpdAN6NeAt0MNF0IECBAgAABAgQIECBAgAABAgQIECBAgAABAgSKEBDoFlGG5EEIdJOpuoYC3c7CGgECBAgQIECAAAECBAgQIECAAAECBAgQIECAQF0CAt266iXQzaiXQDcDTRcCBAgQIECAAAECBAgQIECAAAECBAgQIECAAIEiBAS6RZQheRAC3WSqrqFAt7OwRoAAAQIECBAgQIAAAQIECBAgQIAAAQIECBAgUJeAQLeuegl0M+ol0M1A04UAAQIECBAgQIAAAQIECBAgQIAAAQIECBAgQKAIAYFuEWVIHoRAN5mqayjQ7SysESBAgAABAgQIECBAgAABAgQIECBAgAABAgQI1CUg0K2rXgLdjHoJdDPQdCFAgAABAgQIECBAgAABAgQIECBAgAABAgQIEChCQKBbRBmSByHQTabqGgp0OwtrBAgQIECAAAECBAgQIECAAAECBAgQIECAAAECdQkIdOuql0A3o14C3Qw0XQgQIECAAAECBAgQIECAAAECBAgQIECAAAECBIoQEOgWUYbkQQh0k6m6hgLdzsIaAQIECBAgQIAAAQIECBAgQIAAAQIECBAgQIBAXQIC3brqJdDNqJdANwNNFwIECBAgQIAAAQIECBAgQIAAAQIECBAgQIAAgSIEBLpFlCF5EALdZKquoUC3s7BGgAABAgQIECBAgAABAgQIECBAgAABAgQIECBQl4BAt656CXQz6iXQzUDThQABAgQIECBAgAABAgQIECBAgAABAgQIECBAoAgBgW4RZUgehEA3maprKNDtLKwRIECAAAECBAgQIECAAAECBAgQIECAAAECBAjUJSDQrateAt2Megl0M9B0IUCAAAECBAgQIECAAAECBAgQIECAAAECBAgQKEJAoFtEGZIHIdBNpuoaCnQ7C2sECBAgQIAAAQIECBAgQIAAAQIECBAgQIAAAQJ1CQh066qXQDejXgLdDDRdCBAgQIAAAQIECBAgQIAAAQIECBAgQIAAAQIEihAQ6BZRhuRBCHSTqbqGAt3OwhoBAgQIECBAgAABAgQIECBAgAABAgQIECBAgEBdAgLduuol0M2ol0A3A00XAgQIECBAgAABAgQIECBAgAABAgQIECBAgACBIgQEukWUIXkQAt1kqq6hQLezsEaAAAECBAgQIECAAAECBAgQIECAAAECBAgQIFCXgEC3rnoJdDPqJdDNQNOFAAECBAgQIECAAAECBAgQIECAAAECBAgQIECgCAGBbhFlSB6EQDeZqmso0O0srBEgQIAAAQIECBAgQIAAAQIECBAgQIAAAQIECNQlINCtq14C3Yx6CXQz0HQhQIAAAQIECBAgQIAAAQIECBAgQIAAAQIECBAoQkCgW0QZkgch0E2m6hoKdDsLawQIECBAgAABAgQIECBAgAABAgQIECBAgAABAnUJCHTrqpdAN6NeAt0MNF0IECBAgAABAgQIECBAgAABAgQIECBAgAABAgSKEBDoFlGG5EEIdJOpuoYC3c7CGgECBAgQIECAAAECBAgQIECAAAECBAgQIECAQF0CAt266iXQzaiXQDcDTRcCBAgQIECAAAECBAgQIECAAAECBAgQIECAAIEiBAS6RZQheRAC3WSqrqFAt7OwRoAAAQIECBAgQIAAAQIECBAgQIAAAQIECBAgUJeAQLeuegl0M+ol0M1A04UAAQIECBAgQIAAAQIECBAgQIAAAQIECBAgQKAIAYFuEWVIHoRAN5mqayjQ7SysESBAgAABAgQIECBAgAABAgQIECBAgAABAgQI1CUg0K2rXgLdjHoJdDPQdCFAgAABAgQIECBAgAABAgQIECBAgAABAgQIEChCQKBbRBmSByHQTabqGgp0OwtrBAgQIECAAAECBAgQIECAAAECBAgQIECAAAECdQkIdOuql0A3o14C3Qw0XQgQIECAAAECBAgQIECAAAECBAgQIECAAAECBIoQEOgWUYbkQQh0k6m6hgLdzsIaAQIECBAgQIAAAQIECBAgQIAAAQIECBAgQIBAXQIC3brqJdDNqJdANwNNFwIECBAgQIAAAQIECBAgQIAAAQIECBAgQIAAgSIEBLpFlCF5EALdZKquoUC3s7BGgAABAgQIECBAgAABAgQIECBAgAABAgQIECBQl4BAt656CXQz6iXQzUDThQABAgQIECBAgAABAgQIECBAgAABAgQIECBAoAgBgW4RZUgehEA3maprKNDtLKwRIECAAAECBAgQIECAAAECBAgQIECAAAECBAjUJSDQrateAt2Megl0M9B0IUCAAAECBAgQIECAAAECBAgQIECAAAECBAgQKEJAoFtEGZIHIdBNpuoaCnQ7C2sECBAgQIAAAQIECBAgQIAAAQIECBAgQIAAAQJ1CQh066qXQDejXgLdDDRdCBAgQIAAAQIECBAgQIAAAQIECBAgQIAAAQIEihAQ6BZRhuRBCHSTqbqGAt3OwhoBAgQIECBAgAABAgQIECBAgAABAgQIECBAgEBdAgLduuol0M2ol0A3A00XAgQIECBAgAABAgQIECBAgAABAgQIECBAgACBIgQEukWUIXkQAt1kqq6hQLezsEaAAAECBAgQIECAAAECBAgQIECAAAECBAgQIFCXgEC3rnoJdDPqJdDNQNOFAAECBAgQIECAAAECBAgQIECAAAECBAgQIECgCAGBbhFlSB6EQDeZqmso0O0srBEgQIAAAQIECBAgQIAAAQIECBAgQIAAAQIECNQlINCtq14C3Yx6CXQz0HQhQIAAAQIECBAgQIAAAQIECBAgQIAAAQIECBAoQkCgW0QZkgch0E2m6hoKdDsLawQIECBAgAABAgQIECBAgAABAgQIECBAgAABAnUJCHTrqpdAN6NeAt0MNF0IECBAgAABAgQIECBAgAABAgQIECBAgAABAgSKEBDoFlGG5EEIdJOpuoYC3c7CGgECBAgQIECAAAECBAgQIECAAAECBAgQIECAQF0CAt266iXQzaiXQDcDTRcCBAgQIECAAAECBAgQIECAAAECBAgQIECAAIEiBAS6RZQheRAC3WSqrqFAt7OwRoAAAQIECBAgQIAAAQIECBAgQIAAAQIECBAgUJeAQLeuegl0M+ol0M1A04UAAQIECBAgQIAAAQIECBAgQIAAAQIECBAgQKAIAYFuEWVIHoRAN5mqayjQ7SysESBAgAABAgQIECBAgAABAgQIECBAgAABAgQI1CUg0K2rXgLdjHoJdDPQdCFAgAABAgQIECBAgAABAgQIECBAgAABAgQIEChCQKBbRBmSByHQTabqGgp0OwtrBAgQIECAAAECBAgQIECAAAECBAgQIECAAAECdQkIdOuql0A3o14C3Qw0XQgQIECAAAECBAgQIECAAAECBAgQIECAAAECBIoQEOgWUYbkQQh0k6m6hgLdzsIaAQIECBAgQIAAAQIECBAgQIAAAQIECBAgQIBAXQIC3brqJdDNqJdANwNNFwIECBAgQIAAAQIECBAgQIAAAQIECBAgQIAAgSIEBLpFlCF5EALdZKquoUC3s7BGgAABAgQIECBAgAABAgQIECBAgAABAgQIECBQl4BAt656CXQz6iXQzUDThQABAgQIECBAgAABAgQIECBAgAABAgQIECBAoAgBgW4RZUgehEA3maprKNDtLKwRIECAAAECBAgQIECAAAECBAgQIECAAAECBAjUJSDQrateAt2Megl0M9B0IUCAAAECBAgQIECAAAECBAgQIECAAAECBAgQKEJAoFtEGZIHIdBNpuoaCnQ7C2sECBAgQIAAAQIECBAgQIAAAQIECBAgQIAAAQJ1CQh066qXQDejXgLdDDRdCBAgQIAAAQIECBAgQIAAAQIECBAgQIAAAQIEihAQ6BZRhuRBCHSTqbqGAt3OwhoBAgQIECBAgAABAgQIECBAgAABAgQIECBAgEBdAgLduuol0M2ol0A3A00XAgQIECBAgAABAgQIECBAgAABAgQIECBAgACBIgQEukWUIXkQAt1kqq6hQLezsEaAAAECBAgQIECAAAECBAgQIECAAAECBAgQIFCXgEC3rnoJdDPqJdDNQNOFAAECBAgQIECAAAECBAgQIECAAAECBAgQIECgCAGBbhFlSB6EQDeZqmso0O0srBEgQIAAAQIECBAgQIAAAQIECBAgQIAAAQIECNQlINCtq14C3Yx6CXQz0HQhQIAAAQIECBAgQIAAAQIECBAgQIAAAQIECBAoQkCgW0QZkgch0E2m6hoKdDsLawQIECBAgAABAgQIECBAgAABAgQIECBAgAABAnUJCHTrqpdAN6NeAt0MNF0IECBAgAABAgQIECBAgAABAgQIECBAgAABAgSKEBDoFlGG5EEIdJOpuoYC3c7CGgECBAgQIECAAAECBAgQIECAAAECBAgQIECAQF0CAt266iXQzaiXQDcDTRcCBAgQIECAAAECBAgQIECAAAECBAgQIECAAIEiBAS6RZQheRAC3WSqrqFAt7OwRoAAAQIECBAgQIAAAQIECBAgQIAAAQIECBAgUJeAQLeuegl0M+ol0M1A04UAAQIECBAgQIAAAQIECBAgQIAAAQIECBAgQKAIAYFuEWVIHoRAN5mqayjQ7SysESBAgAABAgQIECBAgAABAgQIECBAgAABAgQI1CUg0K2rXgLdjHoJdDPQdCFAgAABAgQIECBAgAABAgQIECBAgAABAgQIEChCQKBbRBmSByHQTabqGgp0OwtrBAgQIECAAAECBAgQIECAAAECBAgQIECAAAECdQkIdOuql0A3o14C3Qw0XQgQIECAAAECBAgQIECAAAECBAgQIECAAAECBIoQEOgWUYbkQQh0k6m6hgLdzsIaAQIECBAgQIAAAQIECBAgQIAAAQIECBAgQIBAXQIC3brqJdDNqJdANwNNFwIECBAgQIAAAQIECBAgQIAAAQIECBAgQIAAgSIEBLpFlCF5EALdZKquoUC3s7BGgAABAgQIECBAgAABAgQIECBAgAABAgQIECBQl4BAt656CXQz6iXQzUDThQABAgQIECBAgAABAgQIECBAgAABAgQIECBAoAgBgW4RZUgehEA3maprKNDtLKwRIECAAAECBAgQIECAAAECBAgQIECAAAECBAjUJSDQrateAt2Megl0M9B0IUCAAAECBAgQIECAAAECBAgQIECAAAECBAgQKEJAoFtEGZIHIdBNpuoaCnQ7C2sECBAgQIAAAQIECBAgQIAAAQIECBAgQIAAAQJ1CQh066qXQDejXgLdDDRdCBAgQIAAAQIECBAgQIAAAQIECBAgQIAAAQIEihAQ6BZRhuRBCHSTqbqGAt3OwhoBAgQIECBAgAABAgQIECBAgAABAgQIECBAgEBdAgLduuol0M2ol0A3A00XAgQIECBAgAABAgQIECBAgAABAgQIECBAgACBIgQEukWUIXkQAt1kqq6hQLezsEaAAAECBAgQIECAAAECBAgQIECAAAECBAgQIFCXgEC3rnoJdDPqJdDNQNOFAAECBAgQIECAAAECBAgQIECAAAECBAgQIECgCAGBbhFlSB6EQDeZqmso0O0srBEgQIAAAQIECBAgQIAAAQIECBAgQIAAAQIECNQlINCtq14C3Yx6CXQz0HQhQIAAAQIECBAgQIAAAQIECBAgQIAAAQIECBAoQkCgW0QZkgch0E2m6hoKdDsLawQIECBAgAABAgQIECBAgAABAgQIECBAgAABAnUJCHTrqpdAN6NeAt0MNF0IECBAgAABAgQIECBAgAABAgQIECBAgAABAgSKEBDoFlGG5EEIdJOpuoYC3c7CGgECBAgQIECAAAECBAgQIECAAAECBAgQIECAQF0CAt266iXQzaiXQDcDTRcCBAgQIECAAAECBAgQIECAAAECBAgQIECAAIEiBAS6RZQheRAC3WSqrqFAt7OwRoAAAQIECBAgQIAAAQIECBAgQIAAAQIECBAgUJeAQLeuegl0M+ol0M1A04UAAQIECBAgQIAAAQIECBAgQIAAAQIECBAgQKAIAYFuEWVIHoRAN5mqayjQ7SysESBAgAABAgQIECBAgAABAgQIECBAgAABAgQI1CUg0K2rXgLdjHoJdDPQdCFAgAABAgQIECBAgAABAgQIECBAgAABAgQIEChCQKBbRBmSByHQTabqGgp0OwtrBAgQIECAAAECBAgQIECAAAECBAgQIECAAAECdQkIdOuql0A3o14C3Qw0XQgQIECAAAECBAgQIECAAAECBAgQIECAAAECBIoQEOgWUYbkQQh0k6m6hgLdzsIaAQIECBAgQIAAAQIECBAgQIAAAQIECBAgQIBAXQIC3brqJdDNqJdANwNNFwIECBAgQIAAAQIECBAgQIDA/7FnhzgAgEAMBP//a2Rtg+ol4xCQkKlcAgQIECBAgAABAhMCgu7EDPUnBN2aKhcF3Vg4ESBAgAABAgQIECBAgAABAgQIECBAgAABAgQI3BIQdG/tJeh+7CXofqB5QoAAAQIECBAgQIAAAQIECBAgQIAAAQIECBAgMCEg6E7MUH9C0K2pclHQjYUTAQIECBAgQIAAAQIECBAgQIAAAQIECBAgQIDALQFB99Zegu7HXoLuB5onBAgQIECAAAECBAgQIECAAAECBAgQIECAAAECEwKC7sQM9ScE3ZoqFwXdWDgRIECAAAECBAgQIECAAAECBAgQIECAAAECBAjcEhB0b+0l6H7sJeh+oHlCgAABAgQIECBAgAABAgQIECBAgAABAgQIECAwISDoTsxQf0LQralyUdCNhRMBAgQIECBAgAABAgQIECBAgAABAgQIECBAgMAtAUH31l6C7sdegu4HmicECBAgQIAAAQIECBAgQIAAAQIECBAgQIAAAQITAoLuxAz1JwTdmioXBd1YOBEgQIAAAQIECBAgQIAAAQIECBAgQIAAAQIECNwSEHRv7SXofuwl6H6geUKAAAECBAgQIECAAAECBAgQIECAAAECBAgQIDAhIOhOzFB/QtCtqXJR0I2FEwECBAgQIECAAAECBAgQIECAAAECBAgQIECAwC0BQffWXoLux16C7geaJwQIECBAgAABAgQIECBAgAABAgQIECBAgAABAhMCgu7EDPUnBN2aKhcF3Vg4ESBAgAABAgQIECBAgAABAgQIECBAgAABAgQI3BIQdG/tJeh+7CXofqB5QoAAAQIECBAgQIAAAQIECBAgQIAAAQIECBAgMCEg6E7MUH9C0K2pclHQjYUTAQIECBAgQIAAAQIECBAgQIAAAQIECBAgQIDALQFB99Zegu7HXoLuB5onBAgQIECAAAECBAgQIECAAAECBAgQIECAAAECEwKC7sQM9ScE3ZoqFwXdWDgRIECAAAECBAgQIECAAAECBAgQIECAAAECBAjcEhB0b+0l6H7sJeh+oHlCgAABAgQIECBAgAABAgQIECBAgAABAgQIECAwISDoTsxQf0LQralyUdCNhRMBAgQIECBAgAABAgQIECBAgAABAgQIECBAgMAtAUH31l6C7sdegu4HmicECBAgQIAAAQIECBAgQIAAAQIECBAgQIAAAQITAoLuxAz1JwTdmioXBd1YOBEgQIAAAQIECBAgQIAAAQIECBAgQIAAAQIECNwSEHRv7SXofuwl6H6geUKAAAECBAgQIECAAAECBAgQIECAAAECBAgQIDAhIOhOzFB/QtCtqXJR0I2FEwECBAgQIECAAAECBAgQIECAAAECBAgQIECAwC0BQffWXoLux16C7geaJwQIECBAgAABAgQIECBAgAABAgQIECBAgAABAhMCgu7EDPUnBN2aKhcF3Vg4ESBAgAABAgQIECBAgAABAgQIECBAgAABAgQI3BIQdG/tJeh+7CXofqB5QoAAAQIECBAgQIAAAQIECBAgQIAAAQIECBAgMCEg6E7MUH9C0K2pclHQjYUTAQIECBAgQIAAAQIECBAgQIAAAQIECBAgQIDALQFB99Zegu7HXoLuB5onBAgQIECAAAECBAgQIECAAAECBAgQIECAAAECEwKC7sQM9ScE3ZoqFwXdWDgRIECAAAECBAgQIECAAAECBAgQIECAAAECBAjcEhB0b+0l6H7sJeh+oHlCgAABAgQIECBAgAABAgQIECBAgAABAgQIECAwISDoTsxQf0LQralyUdCNhRMBAgQIECBAgAABAgQIECBAgAABAgQIECBAgMAtAUH31l6C7sdegu4HmicECBAgQIAAAQIECBAgQIAAAQIECBAgQIAAAQITAoLuxAz1JwTdmioXBd1YOBEgQIAAAQIECBAgQIAAAQIECBAgQIAAAQIECNwSEHRv7SXofuwl6H6geUKAAAECBAgQIECAAAECBAgQIECAAAECBAgQIDAhIOhOzFB/QtCtqXJR0I2FEwECBAgQIECAAAECBAgQIECAAAECBAgQIECAwC0BQffWXoLux16C7geaJwQIECBAgAABAgQIECBAgAABAgQIECBAgAABAhMCgu7EDPUnBN2aKhcF3Vg4ESBAgAABAgQIECBAgAABAgQIECBAgAABAgQI3BIQdG/tJeh+7CXofqB5QoAAAQIECBAgQIAAAQIECBAgQIAAAQIECBAgMCEg6E7MUH9C0K2pclHQjYUTAQIECBAgQIAAAQIECBAgQIAAAQIECBAgQIDALQFB99Zegu7HXoLuB5onBAgQIECAAAECBAgQIECAAAECBAgQIECAAAECEwKC7sQM9ScE3ZoqFwXdWDgRIECAAAECBAgQIECAAAECBAgQIECAAAECBAjcEhB0b+0l6H7sJeh+oHlCgAABAgQIECBAgAABAgQIECBAgAABAgQIECAwISDoTsxQf0LQralyUdCNhRMBAgQIECBAgAABAgQIECBAgAABAgQIECBAgMAtAUH31l6C7sdegu4HmicECBAgQIAAAQIECBAgQIAAAQIECBAgQIAAAQITAoLuxAz1JwTdmioXBd1YOBEgQIAAAQIECBAgQIAAAQIECBAgQIAAAQIECNwSEHRv7SXofuwl6H6geUKAAAECBAgQIECAAAECBAgQIECAAAECBAgQIDAhIOhOzFB/QtCtqXJR0I2FEwECBAgQIECAAAECBAgQIECAAAECBAgQIECAwC0BQffWXoLux16C7geaJwQIECBAgAABAgQIECBAgAABAgQIECBAgAABAhMCgu7EDPUnBN2aKhcF3Vg4ESBAgAABAgQIECBAgAABAgQIECBAgAABAgQI3BIQdG/tJeh+7CXofqB5QoAAAQIECBAgQIAAAQIECBAgQIAAAQIECBAgMCEg6E7MUH9C0K2pclHQjYUTAQIECBAgQIAAAQIECBAgQIAAAQIECBAgQIDALQFB99Zegu7HXoLuB5onBAgQIECAAAECBAgQIECAAAECBAgQIECAAAECEwKC7sQM9ScE3ZoqFwXdWDgRIECAAAECBAgQIECAAAECBAgQIECAAAECBAjcEhB0b+31AAAA//998y5eAABAAElEQVTt28HKple1hdFUIoKg2BC8/+sTbIiCIKbK//tLXZVUGqsmaazJO8I5ZqfOu+P+xmw+nA+f3v76zl/fJPCXv/34Td/7mAABAgQIECBAgAABAgQIECBAgAABAgQIECBAgMAVgT//8YcrT/GOhcAHQXeh9LNPBN2fgfhHAgQIECBAgAABAgQIECBAgAABAgQIECBAgACBGgFBt2aq94cKusFegm6A5goBAgQIECBAgAABAgQIECBAgAABAgQIECBAgMAJAUH3xAzrRwi6a6r5UNAdCycCBAgQIECAAAECBAgQIECAAAECBAgQIECAAIEuAUG3ay9BN9hL0A3QXCFAgAABAgQIECBAgAABAgQIECBAgAABAgQIEDghIOiemGH9CEF3TTUfCrpj4USAAAECBAgQIECAAAECBAgQIECAAAECBAgQINAlIOh27SXoBnsJugGaKwQIECBAgAABAgQIECBAgAABAgQIECBAgAABAicEBN0TM6wfIeiuqeZDQXcsnAgQIECAAAECBAgQIECAAAECBAgQIECAAAECBLoEBN2uvQTdYC9BN0BzhQABAgQIECBAgAABAgQIECBAgAABAgQIECBA4ISAoHtihvUjBN011Xwo6I6FEwECBAgQIECAAAECBAgQIECAAAECBAgQIECAQJeAoNu1l6Ab7CXoBmiuECBAgAABAgQIECBAgAABAgQIECBAgAABAgQInBAQdE/MsH6EoLummg8F3bFwIkCAAAECBAgQIECAAAECBAgQIECAAAECBAgQ6BIQdLv2EnSDvQTdAM0VAgQIECBAgAABAgQIECBAgAABAgQIECBAgACBEwKC7okZ1o8QdNdU86GgOxZOBAgQIECAAAECBAgQIECAAAECBAgQIECAAAECXQKCbtdegm6wl6AboLlCgAABAgQIECBAgAABAgQIECBAgAABAgQIECBwQkDQPTHD+hGC7ppqPhR0x8KJAAECBAgQIECAAAECBAgQIECAAAECBAgQIECgS0DQ7dpL0A32EnQDNFcIECBAgAABAgQIECBAgAABAgQIECBAgAABAgROCAi6J2ZYP0LQXVPNh4LuWDgRIECAAAECBAgQIECAAAECBAgQIECAAAECBAh0CQi6XXsJusFegm6A5goBAgQIECBAgAABAgQIECBAgAABAgQIECBAgMAJAUH3xAzrRwi6a6r5UNAdCycCBAgQIECAAAECBAgQIECAAAECBAgQIECAAIEuAUG3ay9BN9hL0A3QXCFAgAABAgQIECBAgAABAgQIECBAgAABAgQIEDghIOiemGH9CEF3TTUfCrpj4USAAAECBAgQIECAAAECBAgQIECAAAECBAgQINAlIOh27SXoBnsJugGaKwQIECBAgAABAgQIECBAgAABAgQIECBAgAABAicEBN0TM6wfIeiuqeZDQXcsnAgQIECAAAECBAgQIECAAAECBAgQIECAAAECBLoEBN2uvQTdYC9BN0BzhQABAgQIECBAgAABAgQIECBAgAABAgQIECBA4ISAoHtihvUjBN011Xwo6I6FEwECBAgQIECAAAECBAgQIECAAAECBAgQIECAQJeAoNu1l6Ab7CXoBmiuECBAgAABAgQIECBAgAABAgQIECBAgAABAgQInBAQdE/MsH6EoLummg8F3bFwIkCAAAECBAgQIECAAAECBAgQIECAAAECBAgQ6BIQdLv2EnSDvQTdAM0VAgQIECBAgAABAgQIECBAgAABAgQIECBAgACBEwKC7okZ1o8QdNdU86GgOxZOBAgQIECAAAECBAgQIECAAAECBAgQIECAAAECXQKCbtdegm6wl6AboLlCgAABAgQIECBAgAABAgQIECBAgAABAgQIECBwQkDQPTHD+hGC7ppqPhR0x8KJAAECBAgQIECAAAECBAgQIECAAAECBAgQIECgS0DQ7dpL0A32EnQDNFcIECBAgAABAgQIECBAgAABAgQIECBAgAABAgROCAi6J2ZYP0LQXVPNh4LuWDgRIECAAAECBAgQIECAAAECBAgQIECAAAECBAh0CQi6XXsJusFegm6A5goBAgQIECBAgAABAgQIECBAgAABAgQIECBAgMAJAUH3xAzrRwi6a6r5UNAdCycCBAgQIECAAAECBAgQIECAAAECBAgQIECAAIEuAUG3ay9BN9hL0A3QXCFAgAABAgQIECBAgAABAgQIECBAgAABAgQIEDghIOiemGH9CEF3TTUfCrpj4USAAAECBAgQIECAAAECBAgQIECAAAECBAgQINAlIOh27SXoBnsJugGaKwQIECBAgAABAgQIECBAgAABAgQIECBAgAABAicEBN0TM6wfIeiuqeZDQXcsnAgQIECAAAECBAgQIECAAAECBAgQIECAAAECBLoEBN2uvQTdYC9BN0BzhQABAgQIECBAgAABAgQIECBAgAABAgQIECBA4ISAoHtihvUjBN011Xwo6I6FEwECBAgQIECAAAECBAgQIECAAAECBAgQIECAQJeAoNu1l6Ab7CXoBmiuECBAgAABAgQIECBAgAABAgQIECBAgAABAgQInBAQdE/MsH6EoLummg8F3bFwIkCAAAECBAgQIECAAAECBAgQIECAAAECBAgQ6BIQdLv2EnSDvQTdAM0VAgQIECBAgAABAgQIECBAgAABAgQIECBAgACBEwKC7okZ1o8QdNdU86GgOxZOBAgQIECAAAECBAgQIECAAAECBAgQIECAAAECXQKCbtdegm6wl6AboLlCgAABAgQIECBAgAABAgQIECBAgAABAgQIECBwQkDQPTHD+hGC7ppqPhR0x8KJAAECBAgQIECAAAECBAgQIECAAAECBAgQIECgS0DQ7dpL0A32EnQDNFcIECBAgAABAgQIECBAgAABAgQIECBAgAABAgROCAi6J2ZYP0LQXVPNh4LuWDgRIECAAAECBAgQIECAAAECBAgQIECAAAECBAh0CQi6XXsJusFegm6A5goBAgQIECBAgAABAgQIECBAgAABAgQIECBAgMAJAUH3xAzrRwi6a6r5UNAdCycCBAgQIECAAAECBAgQIECAAAECBAgQIECAAIEuAUG3ay9BN9hL0A3QXCFAgAABAgQIECBAgAABAgQIECBAgAABAgQIEDghIOiemGH9CEF3TTUfCrpj4USAAAECBAgQIECAAAECBAgQIECAAAECBAgQINAlIOh27SXoBnsJugGaKwQIECBAgAABAgQIECBAgAABAgQIECBAgAABAicEBN0TM6wfIeiuqeZDQXcsnAgQIECAAAECBAgQIECAAAECBAgQIECAAAECBLoEBN2uvQTdYC9BN0BzhQABAgQIECBAgAABAgQIECBAgAABAgQIECBA4ISAoHtihvUjBN011Xwo6I6FEwECBAgQIECAAAECBAgQIECAAAECBAgQIECAQJeAoNu1l6Ab7CXoBmiuECBAgAABAgQIECBAgAABAgQIECBAgAABAgQInBAQdE/MsH6EoLummg8F3bFwIkCAAAECBAgQIECAAAECBAgQIECAAAECBAgQ6BIQdLv2EnSDvQTdAM0VAgQIECBAgAABAgQIECBAgAABAgQIECBAgACBEwKC7okZ1o8QdNdU86GgOxZOBAgQIECAAAECBAgQIECAAAECBAgQIECAAAECXQKCbtdegm6wl6AboLlCgAABAgQIECBAgAABAgQIECBAgAABAgQIECBwQkDQPTHD+hGC7ppqPhR0x8KJAAECBAgQIECAAAECBAgQIECAAAECBAgQIECgS0DQ7dpL0A32EnQDNFcIECBAgAABAgQIECBAgAABAgQIECBAgAABAgROCAi6J2ZYP0LQXVPNh4LuWDgRIECAAAECBAgQIECAAAECBAgQIECAAAECBAh0CQi6XXsJusFegm6A5goBAgQIECBAgAABAgQIECBAgAABAgQIECBAgMAJAUH3xAzrRwi6a6r5UNAdCycCBAgQIECAAAECBAgQIECAAAECBAgQIECAAIEuAUG3ay9BN9hL0A3QXCFAgAABAgQIECBAgAABAgQIECBAgAABAgQIEDghIOiemGH9CEF3TTUfCrpj4USAAAECBAgQIECAAAECBAgQIECAAAECBAgQINAlIOh27SXoBnsJugGaKwQIECBAgAABAgQIECBAgAABAgQIECBAgAABAicEBN0TM6wfIeiuqeZDQXcsnAgQIECAAAECBAgQIECAAAECBAgQIECAAAECBLoEBN2uvQTdYC9BN0BzhQABAgQIECBAgAABAgQIECBAgAABAgQIECBA4ISAoHtihvUjBN011Xwo6I6FEwECBAgQIECAAAECBAgQIECAAAECBAgQIECAQJeAoNu1l6Ab7CXoBmiuECBAgAABAgQIECBAgAABAgQIECBAgAABAgQInBAQdE/MsH6EoLummg8F3bFwIkCAAAECBAgQIECAAAECBAgQIECAAAECBAgQ6BIQdLv2EnSDvQTdAM0VAgQIECBAgAABAgQIECBAgAABAgQIECBAgACBEwKC7okZ1o8QdNdU86GgOxZOBAgQIECAAAECBAgQIECAAAECBAgQIECAAAECXQKCbtdegm6wl6AboLlCgAABAgQIECBAgAABAgQIECBAgAABAgQIECBwQkDQPTHD+hGC7ppqPhR0x8KJAAECBAgQIECAAAECBAgQIECAAAECBAgQIECgS0DQ7dpL0A32EnQDNFcIECBAgAABAgQIECBAgAABAgQIECBAgAABAgROCAi6J2ZYP0LQXVPNh4LuWDgRIECAAAECBAgQIECAAAECBAgQIECAAAECBAh0CQi6XXsJusFegm6A5goBAgQIECBAgAABAgQIECBAgAABAgQIECBAgMAJAUH3xAzrRwi6a6r5UNAdCycCBAgQIECAAAECBAgQIECAAAECBAgQIECAAIEuAUG3ay9BN9hL0A3QXCFAgAABAgQIECBAgAABAgQIECBAgAABAgQIEDghIOiemGH9CEF3TTUfCrpj4USAAAECBAgQIECAAAECBAgQIECAAAECBAgQINAlIOh27SXoBnsJugGaKwQIECBAgAABAgQIECBAgAABAgQIECBAgAABAicEBN0TM6wfIeiuqeZDQXcsnAgQIECAAAECBAgQIECAAAECBAgQIECAAAECBLoEBN2uvQTdYC9BN0BzhQABAgQIECBAgAABAgQIECBAgAABAgQIECBA4ISAoHtihvUjBN011Xwo6I6FEwECBAgQIECAAAECBAgQIECAAAECBAgQIECAQJeAoNu1l6Ab7CXoBmiuECBAgAABAgQIECBAgAABAgQIECBAgAABAgQInBAQdE/MsH6EoLummg8F3bFwIkCAAAECBAgQIECAAAECBAgQIECAAAECBAgQ6BIQdLv2EnSDvQTdAM0VAgQIECBAgAABAgQIECBAgAABAgQIECBAgACBEwKC7okZ1o8QdNdU86GgOxZOBAgQIECAAAECBAgQIECAAAECBAgQIECAAAECXQKCbtdegm6wl6AboLlCgAABAgQIECBAgAABAgQIECBAgAABAgQIECBwQkDQPTHD+hGC7ppqPhR0x8KJAAECBAgQIECAAAECBAgQIECAAAECBAgQIECgS0DQ7dpL0A32EnQDNFcIECBAgAABAgQIECBAgAABAgQIECBAgAABAgROCAi6J2ZYP0LQXVPNh4LuWDgRIECAAAECBAgQIECAAAECBAgQIECAAAECBAh0CQi6XXsJusFegm6A5goBAgQIECBAgAABAgQIECBAgAABAgQIECBAgMAJAUH3xAzrRwi6a6r5UNAdCycCBAgQIECAAAECBAgQIECAAAECBAgQIECAAIEuAUG3ay9BN9hL0A3QXCFAgAABAgQIECBAgAABAgQIECBAgAABAgQIEDghIOiemGH9CEF3TTUfCrpj4USAAAECBAgQIECAAAECBAgQIECAAAECBAgQINAlIOh27SXoBnsJugGaKwQIECBAgAABAgQIECBAgAABAgQIECBAgAABAicEBN0TM6wfIeiuqeZDQXcsnAgQIECAAAECBAgQIECAAAECBAgQIECAAAECBLoEBN2uvQTdYC9BN0BzhQABAgQIECBAgAABAgQIECBAgAABAgQIECBA4ISAoHtihvUjBN011Xwo6I6FEwECBAgQIECAAAECBAgQIECAAAECBAgQIECAQJeAoNu1l6Ab7CXoBmiuECBAgAABAgQIECBAgAABAgQIECBAgAABAgQInBAQdE/MsH6EoLummg8F3bFwIkCAAAECBAgQIECAAAECBAgQIECAAAECBAgQ6BIQdLv2EnSDvQTdAM0VAgQIECBAgAABAgQIECBAgAABAgQIECBAgACBEwKC7okZ1o8QdNdU86GgOxZOBAgQIECAAAECBAgQIECAAAECBAgQIECAAAECXQKCbtdegm6wl6AboLlCgAABAgQIECBAgAABAgQIECBAgAABAgQIECBwQkDQPTHD+hGC7ppqPhR0x8KJAAECBAgQIECAAAECBAgQIECAAAECBAgQIECgS0DQ7dpL0A32EnQDNFcIECBAgAABAgQIECBAgAABAgQIECBAgAABAgROCAi6J2ZYP0LQXVPNh4LuWDgRIECAAAECBAgQIECAAAECBAgQIECAAAECBAh0CQi6XXsJusFegm6A5goBAgQIECBAgAABAgQIECBAgAABAgQIECBAgMAJAUH3xAzrRwi6a6r5UNAdCycCBAgQIECAAAECBAgQIECAAAECBAgQIECAAIEuAUG3ay9BN9hL0A3QXCFAgAABAgQIECBAgAABAgQIECBAgAABAgQIEDghIOiemGH9CEF3TTUfCrpj4USAAAECBAgQIECAAAECBAgQIECAAAECBAgQINAlIOh27SXoBnsJugGaKwQIECBAgAABAgQIECBAgAABAgQIECBAgAABAicEBN0TM6wfIeiuqeZDQXcsnAgQIECAAAECBAgQIECAAAECBAgQIECAAAECBLoEBN2uvQTdYC9BN0BzhQABAgQIECBAgAABAgQIECBAgAABAgQIECBA4ISAoHtihvUjBN011Xwo6I6FEwECBAgQIECAAAECBAgQIECAAAECBAgQIECAQJeAoNu1l6Ab7CXoBmiuECBAgAABAgQIECBAgAABAgQIECBAgAABAgQInBAQdE/MsH6EoLummg8F3bFwIkCAAAECBAgQIECAAAECBAgQIECAAAECBAgQ6BIQdLv2EnSDvQTdAM0VAgQIECBAgAABAgQIECBAgAABAgQIECBAgACBEwKC7okZ1o8QdNdU86GgOxZOBAgQIECAAAECBAgQIECAAAECBAgQIECAAAECXQKCbtdegm6wl6AboLlCgAABAgQIECBAgAABAgQIECBAgAABAgQIECBwQkDQPTHD+hGC7ppqPhR0x8KJAAECBAgQIECAAAECBAgQIECAAAECBAgQIECgS0DQ7dpL0A32EnQDNFcIECBAgAABAgQIECBAgAABAgQIECBAgAABAgROCAi6J2ZYP0LQXVPNh4LuWDgRIECAAAECBAgQIECAAAECBAgQIECAAAECBAh0CQi6XXsJusFegm6A5goBAgQIECBAgAABAgQIECBAgAABAgQIECBAgMAJAUH3xAzrRwi6a6r5UNAdCycCBAgQIECAAAECBAgQIECAAAECBAgQIECAAIEuAUG3ay9BN9hL0A3QXCFAgAABAgQIECBAgAABAgQIECBAgAABAgQIEDghIOiemGH9CEF3TTUfCrpj4USAAAECBAgQIECAAAECBAgQIECAAAECBAgQINAlIOh27SXoBnsJugGaKwQIECBAgAABAgQIECBAgAABAgQIECBAgAABAicEBN0TM6wfIeiuqeZDQXcsnAgQIECAAAECBAgQIECAAAECBAgQIECAAAECBLoEBN2uvQTdYC9BN0BzhQABAgQIECBAgAABAgQIECBAgAABAgQIECBA4ISAoHtihvUjBN011Xwo6I6FEwECBAgQIECAAAECBAgQIECAAAECBAgQIECAQJeAoNu1l6Ab7CXoBmiuECBAgAABAgQIECBAgAABAgQIECBAgAABAgQInBAQdE/MsH6EoLummg8F3bFwIkCAAAECBAgQIECAAAECBAgQIECAAAECBAgQ6BIQdLv2EnSDvQTdAM0VAgQIECBAgAABAgQIECBAgAABAgQIECBAgACBEwKC7okZ1o8QdNdU86GgOxZOBAgQIECAAAECBAgQIECAAAECBAgQIECAAAECXQKCbtdegm6wl6AboLlCgAABAgQIECBAgAABAgQIECBAgAABAgQIECBwQkDQPTHD+hGC7ppqPhR0x8KJAAECBAgQIECAAAECBAgQIECAAAECBAgQIECgS0DQ7dpL0A32EnQDNFcIECBAgAABAgQIECBAgAABAgQIECBAgAABAgROCAi6J2ZYP0LQXVPNh4LuWDgRIECAAAECBAgQIECAAAECBAgQIECAAAECBAh0CQi6XXsJusFegm6A5goBAgQIECBAgAABAgQIECBAgAABAgQIECBAgMAJAUH3xAzrRwi6a6r5UNAdCycCBAgQIECAAAECBAgQIECAAAECBAgQIECAAIEuAUG3ay9BN9hL0A3QXCFAgAABAgQIECBAgAABAgQIECBAgAABAgQIEDghIOiemGH9CEF3TTUfCrpj4USAAAECBAgQIECAAAECBAgQIECAAAECBAgQINAlIOh27SXoBnsJugGaKwQIECBAgAABAgQIECBAgAABAgQIECBAgAABAicEBN0TM6wfIeiuqeZDQXcsnAgQIECAAAECBAgQIECAAAECBAgQIECAAAECBLoEBN2uvQTdYC9BN0BzhQABAgQIECBAgAABAgQIECBAgAABAgQIECBA4ISAoHtihvUjBN011Xwo6I6FEwECBAgQIECAAAECBAgQIECAAAECBAgQIECAQJeAoNu1l6Ab7CXoBmiuECBAgAABAgQIECBAgAABAgQIECBAgAABAgQInBAQdE/MsH6EoLummg8F3bFwIkCAAAECBAgQIECAAAECBAgQIECAAAECBAgQ6BIQdLv2EnSDvQTdAM0VAgQIECBAgAABAgQIECBAgAABAgQIECBAgACBEwKC7okZ1o8QdNdU86GgOxZOBAgQIECAAAECBAgQIECAAAECBAgQIECAAAECXQKCbtdegm6wl6AboLlCgAABAgQIECBAgAABAgQIECBAgAABAgQIECBwQkDQPTHD+hGC7ppqPhR0x8KJAAECBAgQIECAAAECBAgQIECAAAECBAgQIECgS0DQ7dpL0A32EnQDNFcIECBAgAABAgQIECBAgAABAgQIECBAgAABAgROCAi6J2ZYP0LQXVPNh4LuWDgRIECAAAECBAgQIECAAAECBAgQIECAAAECBAh0CQi6XXsJusFegm6A5goBAgQIECBAgAABAgQIECBAgAABAgQIECBAgMAJAUH3xAzrRwi6a6r5UNAdCycCBAgQIECAAAECBAgQIECAAAECBAgQIECAAIEuAUG3ay9BN9hL0A3QXCFAgAABAgQIECBAgAABAgQIECBAgAABAgQIEDghIOiemGH9CEF3TTUfCrpj4USAAAECBAgQIECAAAECBAgQIECAAAECBAgQINAlIOh27SXoBnsJugGaKwQIECBAgAABAgQIECBAgAABAgQIECBAgAABAicEBN0TM6wfIeiuqeZDQXcsnAgQIECAAAECBAgQIECAAAECBAgQIECAAAECBLoEBN2uvQTdYC9BN0BzhQABAgQIECBAgAABAgQIECBAgAABAgQIECBA4ISAoHtihvUjBN011Xwo6I6FEwECBAgQIECAAAECBAgQIECAAAECBAgQIECAQJeAoNu1l6Ab7CXoBmiuECBAgAABAgQIECBAgAABAgQIECBAgAABAgQInBAQdE/MsH6EoLummg8F3bFwIkCAAAECBAgQIECAAAECBAgQIECAAAECBAgQ6BIQdLv2EnSDvQTdAM0VAgQIECBAgAABAgQIECBAgAABAgQIECBAgACBEwKC7okZ1o8QdNdU86GgOxZOBAgQIECAAAECBAgQIECAAAECBAgQIECAAAECXQKCbtdegm6wl6AboLlCgAABAgQIECBAgAABAgQIECBAgAABAgQIECBwQkDQPTHD+hGC7ppqPhR0x8KJAAECBAgQIECAAAECBAgQIECAAAECBAgQIECgS0DQ7dpL0A32EnQDNFcIECBAgAABAgQIECBAgAABAgQIECBAgAABAgROCAi6J2ZYP0LQXVPNh4LuWDgRIECAAAECBAgQIECAAAECBAgQIECAAAECBAh0CQi6XXsJusFegm6A5goBAgQIECBAgAABAgQIECBAgAABAgQIECBAgMAJAUH3xAzrRwi6a6r5UNAdCycCBAgQIECAAAECBAgQIECAAAECBAgQIECAAIEuAUG3ay9BN9hL0A3QXCFAgAABAgQIECBAgAABAgQIECBAgAABAgQIEDghIOiemGH9CEF3TTUfCrpj4USAAAECBAgQIECAAAECBAgQIECAAAECBAgQINAlIOh27SXoBnsJugGaKwQIECBAgAABAgQIECBAgAABAgQIECBAgAABAicEBN0TM6wfIeiuqeZDQXcsnAgQIECAAAECBAgQIECAAAECBAgQIECAAAECBLoEBN2uvQTdYC9BN0BzhQABAgQIECBAgAABAgQIECBAgAABAgQIECBA4ISAoHtihvUjBN011Xwo6I6FEwECBAgQIECAAAECBAgQIECAAAECBAgQIECAQJeAoNu1l6Ab7CXoBmiuECBAgAABAgQIECBAgAABAgQIECBAgAABAgQInBAQdE/MsH6EoLummg8F3bFwIkCAAAECBAgQIECAAAECBAgQIECAAAECBAgQ6BIQdLv2EnSDvQTdAM0VAgQIECBAgAABAgQIECBAgAABAgQIECBAgACBEwKC7okZ1o8QdNdU86GgOxZOBAgQIECAAAECBAgQIECAAAECBAgQIECAAAECXQKCbtdegm6wl6AboLlCgAABAgQIECBAgAABAgQIECBAgAABAgQIECBwQkDQPTHD+hGC7ppqPhR0x8KJAAECBAgQIECAAAECBAgQIECAAAECBAgQIECgS0DQ7dpL0A32EnQDNFcIECBAgAABAgQIECBAgAABAgQIECBAgAABAgROCAi6J2ZYP0LQXVPNh4LuWDgRIECAAAECBAgQIECAAAECBAgQIECAAAECBAh0CQi6XXsJusFegm6A5goBAgQIECBAgAABAgQIECBAgAABAgQIECBAgMAJAUH3xAzrRwi6a6r5UNAdCycCBAgQIECAAAECBAgQIECAAAECBAgQIECAAIEuAUG3ay9BN9hL0A3QXCFAgAABAgQIECBAgAABAgQIECBAgAABAgQIEDghIOiemGH9CEF3TTUfCrpj4USAAAECBAgQIECAAAECBAgQIECAAAECBAgQINAlIOh27SXoBnsJugGaKwQIECBAgAABAgQIECBAgAABAgQIECBAgAABAicEBN0TM6wfIeiuqeZDQXcsnAgQIECAAAECBAgQIECAAAECBAgQIECAAAECBLoEBN2uvQTdYC9BN0BzhQABAgQIECBAgAABAgQIECBAgAABAgQIECBA4ISAoHtihvUjBN011Xwo6I6FEwECBAgQIECAAAECBAgQIECAAAECBAgQIECAQJeAoNu1l6Ab7CXoBmiuECBAgAABAgQIECBAgAABAgQIECBAgAABAgQInBAQdE/MsH6EoLummg8F3bFwIkCAAAECBAgQIECAAAECBAgQIECAAAECBAgQ6BIQdLv2EnSDvQTdAM0VAgQIECBAgAABAgQIECBAgAABAgQIECBAgACBEwKC7okZ1o8QdNdU86GgOxZOBAgQIECAAAECBAgQIECAAAECBAgQIECAAAECXQKCbtdegm6wl6AboLlCgAABAgQIECBAgAABAgQIECBAgAABAgQIECBwQkDQPTHD+hGC7ppqPhR0x8KJAAECBAgQIECAAAECBAgQIECAAAECBAgQIECgS0DQ7dpL0A32EnQDNFcIECBAgAABAgQIECBAgAABAgQIECBAgAABAgROCAi6J2ZYP0LQXVPNh4LuWDgRIECAAAECBAgQIECAAAECBAgQIECAAAECBAh0CQi6XXsJusFegm6A5goBAgQIECBAgAABAgQIECBAgAABAgQIECBAgMAJAUH3xAzrRwi6a6r5UNAdCycCBAgQIECAAAECBAgQIECAAAECBAgQIECAAIEuAUG3ay9BN9hL0A3QXCFAgAABAgQIECBAgAABAgQIECBAgAABAgQIEDghIOiemGH9CEF3TTUfCrpj4USAAAECBAgQIECAAAECBAgQIECAAAECBAgQINAlIOh27SXoBnsJugGaKwQIECBAgAABAgQIECBAgAABAgQIECBAgAABAicEBN0TM6wfIeiuqeZDQXcsnAgQIECAAAECBAgQIECAAAECBAgQIECAAAECBLoEBN2uvQTdYC9BN0BzhQABAgQIECBAgAABAgQIECBAgAABAgQIECBA4ISAoHtihvUjBN011Xwo6I6FEwECBAgQIECAAAECBAgQIECAAAECBAgQIECAQJeAoNu1l6Ab7CXoBmiuECBAgAABAgQIECBAgAABAgQIECBAgAABAgQInBAQdE/MsH6EoLummg8F3bFwIkCAAAECBAgQIECAAAECBAgQIECAAAECBAgQ6BIQdLv2EnSDvQTdAM0VAgQIECBAgAABAgQIECBAgAABAgQIECBAgACBEwKC7okZ1o8QdNdU86GgOxZOBAgQIECAAAECBAgQIECAAAECBAgQIECAAAECXQKCbtdegm6wl6AboLlCgAABAgQIECBAgAABAgQIECBAgAABAgQIECBwQkDQPTHD+hGC7ppqPhR0x8KJAAECBAgQIECAAAECBAgQIECAAAECBAgQIECgS0DQ7dpL0A32EnQDNFcIECBAgAABAgQIECBAgAABAgQIECBAgAABAgROCAi6J2ZYP0LQXVPNh4LuWDgRIECAAAECBAgQIECAAAECBAgQIECAAAECBAh0CQi6XXsJusFegm6A5goBAgQIECBAgAABAgQIECBAgAABAgQIECBAgMAJAUH3xAzrRwi6a6r5UNAdCycCBAgQIECAAAECBAgQIECAAAECBAgQIECAAIEuAUG3ay9BN9hL0A3QXCFAgAABAgQIECBAgAABAgQIECBAgAABAgQIEDghIOiemGH9CEF3TTUfCrpj4USAAAECBAgQIECAAAECBAgQIECAAAECBAgQINAlIOh27SXoBnsJugGaKwQIECBAgAABAgQIECBAgAABAgQIECBAgAABAicEBN0TM6wfIeiuqeZDQXcsnAgQIECAAAECBAgQIECAAAECBAgQIECAAAECBLoEBN2uvQTdYC9BN0BzhQABAgQIECBAgAABAgQIECBAgAABAgQIECBA4ISAoHtihvUjBN011Xwo6I6FEwECBAgQIECAAAECBAgQIECAAAECBAgQIECAQJeAoNu1l6Ab7CXoBmiuECBAgAABAgQIECBAgAABAgQIECBAgAABAgQInBAQdE/MsH6EoLummg8F3bFwIkCAAAECBAgQIECAAAECBAgQIECAAAECBAgQ6BIQdLv2EnSDvQTdAM0VAgQIECBAgAABAgQIECBAgAABAgQIECBAgACBEwKC7okZ1o8QdNdU86GgOxZOBAgQIECAAAECBAgQIECAAAECBAgQIECAAAECXQKCbtdegm6wl6AboLlCgAABAgQIECBAgAABAgQIECBAgAABAgQIECBwQkDQPTHD+hGC7ppqPhR0x8KJAAECBAgQIECAAAECBAgQIECAAAECBAgQIECgS0DQ7dpL0A32EnQDNFcIECBAgAABAgQIECBAgAABAgQIECBAgAABAgROCAi6J2ZYP0LQXVPNh4LuWDgRIECAAAECBAgQIECAAAECBAgQIECAAAECBAh0CQi6XXsJusFegm6A5goBAgQIECBAgAABAgQIECBAgAABAgQIECBAgMAJAUH3xAzrRwi6a6r5UNAdCycCBAgQIECAAAECBAgQIECAAAECBAgQIECAAIEuAUG3ay9BN9hL0A3QXCFAgAABAgQIECBAgAABAgQIECBAgAABAgQIEDghIOiemGH9CEF3TTUfCrpj4USAAAECBAgQIECAAAECBAgQIECAAAECBAgQINAlIOh27SXoBnsJugGaKwQIECBAgAABAgQIECBAgAABAgQIECBAgAABAicEBN0TM6wfIeiuqeZDQXcsnAgQIECAAAECBAgQIECAAAECBAgQIECAAAECBLoEBN2uvQTdYC9BN0BzhQABAgQIECBAgAABAgQIECBAgAABAgQIECBA4ISAoHtihvUjBN011Xwo6I6FEwECBAgQIECAAAECBAgQIECAAAECBAgQIECAQJeAoNu1l6Ab7CXoBmiuECBAgAABAgQIECBAgAABAgQIECBAgAABAgQInBAQdE/MsH6EoLummg8F3bFwIkCAAAECBAgQIECAAAECBAgQIECAAAECBAgQ6BIQdLv2EnSDvQTdAM0VAgQIECBAgAABAgQIECBAgAABAgQIECBAgACBEwKC7okZ1o8QdNdU86GgOxZOBAgQIECAAAECBAgQIECAAAECBAgQIECAAAECXQKCbtdegm6wl6AboLlCgAABAgQIECBAgAABAgQIECBAgAABAgQIECBwQkDQPTHD+hGC7ppqPhR0x8KJAAECBAgQIECAAAECBAgQIECAAAECBAgQIECgS0DQ7dpL0A32EnQDNFcIECBAgAABAgQIECBAgAABAgQIECBAgAABAgROCAi6J2ZYP0LQXVPNh4LuWDgRIECAAAECBAgQIECAAAECBAgQIECAAAECBAh0CQi6XXsJusFegm6A5goBAgQIECBAgAABAgQIECBAgAABAgQIECBAgMAJAUH3xAzrRwi6a6r5UNAdCycCBAgQIECAAAECBAgQIECAAAECBAgQIECAAIEuAUG3ay9BN9hL0A3QXCFAgAABAgQIECBAgAABAgQIECBAgAABAgQIEDghIOiemGH9CEF3TTUfCrpj4USAAAECBAgQIECAAAECBAgQIECAAAECBAgQINAlIOh27SXoBnsJugGaKwQIECBAgAABAgQIECBAgAABAgQIECBAgAABAicEBN0TM6wfIeiuqeZDQXcsnAgQIECAAAECBAgQIECAAAECBAgQIECAAAECBLoEBN2uvQTdYC9BN0BzhQABAgQIECBAgAABAgQIECBAgAABAgQIECBA4ISAoHtihvUjBN011Xwo6I6FEwECBAgQIECAAAECBAgQIECAAAECBAgQIECAQJeAoNu1l6Ab7CXoBmiuECBAgAABAgQIECBAgAABAgQIECBAgAABAgQInBAQdE/MsH6EoLummg8F3bFwIkCAAAECBAgQIECAAAECBAgQIECAAAECBAgQ6BIQdLv2EnSDvQTdAM0VAgQIECBAgAABAgQIECBAgAABAgQIECBAgACBEwKC7okZ1o8QdNdU86GgOxZOBAgQIECAAAECBAgQIECAAAECBAgQIECAAAECXQKCbtdegm6wl6AboLlCgAABAgQIECBAgAABAgQIECBAgAABAgQIECBwQkDQPTHD+hGC7ppqPhR0x8KJAAECBAgQIECAAAECBAgQIECAAAECBAgQIECgS0DQ7dpL0A32EnQDNFcIECBAgAABAgQIECBAgAABAgQIECBAgAABAgROCAi6J2ZYP0LQXVPNh4LuWDgRIECAAAECBAgQIECAAAECBAgQIECAAAECBAh0CQi6XXsJusFegm6A5goBAgQIECBAgAABAgQIECBAgAABAgQIECBAgMAJAUH3xAzrRwi6a6r5UNAdCycCBAgQIECAAAECBAgQIECAAAECBAgQIECAAIEuAUG3ay9BN9hL0A3QXCFAgAABAgQIECBAgAABAgQIECBAgAABAgQIEDghIOiemGH9CEF3TTUfCrpj4USAAAECBAgQIECAAAECBAgQIECAAAECBAgQINAlIOh27SXoBnsJugGaKwQIECBAgAABAgQIECBAgAABAgQIECBAgAABAicEBN0TM6wfIeiuqeZDQXcsnAgQIECAAAECBAgQIECAAAECBAgQIECAAAECBLoEBN2uvQTdYC9BN0BzhQABAgQIECBAgAABAgQIECBAgAABAgQIECBA4ISAoHtihvUjBN011Xwo6I6FEwECBAgQIECAAAECBAgQIECAAAECBAgQIECAQJeAoNu1l6Ab7CXoBmiuECBAgAABAgQIECBAgAABAgQIECBAgAABAgQInBAQdE/MsH6EoLummg8F3bFwIkCAAAECBAgQIECAAAECBAgQIECAAAECBAgQ6BIQdLv2EnSDvQTdAM0VAgQIECBAgAABAgQIECBAgAABAgQIECBAgACBEwKC7okZ1o8QdNdU86GgOxZOBAgQIECAAAECBAgQIECAAAECBAgQIECAAAECXQKCbtdegm6wl6AboLlCgAABAgQIECBAgAABAgQIECBAgAABAgQIECBwQkDQPTHD+hGC7ppqPhR0x8KJAAECBAgQIECAAAECBAgQIECAAAECBAgQIECgS0DQ7dpL0A32EnQDNFcIECBAgAABAgQIECBAgAABAgQIECBAgAABAgROCAi6J2ZYP0LQXVPNh4LuWDgRIECAAAECBAgQIECAAAECBAgQIECAAAECBAh0CQi6XXsJusFegm6A5goBAgQIECBAgAABAgQIECBAgAABAgQIECBAgMAJAUH3xAzrRwi6a6r5UNAdCycCBAgQIECAAAECBAgQIECAAAECBAgQIECAAIEuAUG3ay9BN9hL0A3QXCFAgAABAgQIECBAgAABAgQIECBAgAABAgQIEDghIOiemGH9CEF3TTUfCrpj4USAAAECBAgQIECAAAECBAgQIECAAAECBAgQINAlIOh27SXoBnsJugGaKwQIECBAgAABAgQIECBAgAABAgQIECBAgAABAicEBN0TM6wfIeiuqeZDQXcsnAgQIECAAAECBAgQIECAAAECBAgQIECAAAECBLoEBN2uvQTdYC9BN0BzhQABAgQIECBAgAABAgQIECBAgAABAgQIECBA4ISAoHtihvUjBN011Xwo6I6FEwECBAgQIECAAAECBAgQIECAAAECBAgQIECAQJeAoNu1l6Ab7CXoBmiuECBAgAABAgQIECBAgAABAgQIECBAgAABAgQInBAQdE/MsH6EoLummg8F3bFwIkCAAAECBAgQIECAAAECBAgQIECAAAECBAgQ6BIQdLv2EnSDvQTdAM0VAgQIECBAgAABAgQIECBAgAABAgQIECBAgACBEwKC7okZ1o8QdNdU86GgOxZOBAgQIECAAAECBAgQIECAAAECBAgQIECAAAECXQKCbtdegm6wl6AboLlCgAABAgQIECBAgAABAgQIECBAgAABAgQIECBwQkDQPTHD+hGC7ppqPhR0x8KJAAECBAgQIECAAAECBAgQIECAAAECBAgQIECgS0DQ7dpL0A32EnQDNFcIECBAgAABAgQIECBAgAABAgQIECBAgAABAgROCAi6J2ZYP0LQXVPNh4LuWDgRIECAAAECBAgQIECAAAECBAgQIECAAAECBAh0CQi6XXsJusFegm6A5goBAgQIECBAgAABAgQIECBAgAABAgQIECBAgMAJAUH3xAzrRwi6a6r5UNAdCycCBAgQIECAAAECBAgQIECAAAECBAgQIECAAIEuAUG3ay9BN9hL0A3QXCFAgAABAgQIECBAgAABAgQIECBAgAABAgQIEDghIOiemGH9CEF3TTUfCrpj4USAAAECBAgQIECAAAECBAgQIECAAAECBAgQINAlIOh27SXoBnsJugGaKwQIECBAgAABAgQIECBAgAABAgQIECBAgAABAicEBN0TM6wfIeiuqeZDQXcsnAgQIECAAAECBAgQIECAAAECBAgQIECAAAECBLoEBN2uvQTdYC9BN0BzhQABAgQIECBAgAABAgQIECBAgAABAgQIECBA4ISAoHtihvUjBN011Xwo6I6FEwECBAgQIECAAAECBAgQIECAAAECBAgQIECAQJeAoNu1l6Ab7CXoBmiuECBAgAABAgQIECBAgAABAgQIECBAgAABAgQInBAQdE/MsH6EoLummg8F3bFwIkCAAAECBAgQIECAAAECBAgQIECAAAECBAgQ6BIQdLv2EnSDvQTdAM0VAgQIECBAgAABAgQIECBAgAABAgQIECBAgACBEwKC7okZ1o8QdNdU86GgOxZOBAgQIECAAAECBAgQIECAAAECBAgQIECAAAECXQKCbtdegm6wl6AboLlCgAABAgQIECBAgAABAgQIECBAgAABAgQIECBwQkDQPTHD+hGC7ppqPhR0x8KJAAECBAgQIECAAAECBAgQIECAAAECBAgQIECgS0DQ7dpL0A32EnQDNFcIECBAgAABAgQIECBAgAABAgQIECBAgAABAgROCAi6J2ZYP0LQXVPNh4LuWDgRIECAAAECBAgQIECAAAECBAgQIECAAAECBAh0CQi6XXsJusFegm6A5goBAgQIECBAgAABAgQIECBAgAABAgQIECBAgMAJAUH3xAzrRwi6a6r5UNAdCycCBAgQIECAAAECBAgQIECAAAECBAgQIECAAIEuAUG3ay9BN9hL0A3QXCFAgAABAgQIECBAgAABAgQIECBAgAABAgQIEDghIOiemGH9CEF3TTUfCrpj4USAAAECBAgQIECAAAECBAgQIECAAAECBAgQINAlIOh27SXoBnsJugGaKwQIECBAgAABAgQIECBAgAABAgQIECBAgAABAicEBN0TM6wfIeiuqeZDQXcsnAgQIECAAAECBAgQIECAAAECBAgQIECAAAECBLoEBN2uvQTdYC9BN0BzhQABAgQIECBAgAABAgQIECBAgAABAgQIECBA4ISAoHtihvUjBN011Xwo6I6FEwECBAgQIECAAAECBAgQIECAAAECBAgQIECAQJeAoNu1l6Ab7CXoBmiuECBAgAABAgQIECBAgAABAgQIECBAgAABAgQInBAQdE/MsH6EoLummg8F3bFwIkCAAAECBAgQIECAAAECBAgQIECAAAECBAgQ6BIQdLv2EnSDvQTdAM0VAgQIECBAgAABAgQIECBAgAABAgQIECBAgACBEwKC7okZ1o8QdNdU86GgOxZOBAgQIECAAAECBAgQIECAAAECBAgQIECAAAECXQKCbtdegm6wl6AboLlCgAABAgQIECBAgAABAgQIECBAgAABAgQIECBwQkDQPTHD+hGC7ppqPhR0x8KJAAECBAgQIECAAAECBAgQIECAAAECBAgQIECgS0DQ7dpL0A32EnQDNFcIECBAgAABAgQIECBAgAABAgQIECBAgAABAgROCAi6J2ZYP0LQXVPNh4LuWDgRIECAAAECBAgQIECAAAECBAgQIECAAAECBAh0CQi6XXsJusFegm6A5goBAgQIECBAgAABAgQIECBAgAABAgQIECBAgMAJAUH3xAzrRwi6a6r5UNAdCycCBAgQIECAAAECBAgQIECAAAECBAgQIECAAIEuAUG3ay9BN9hL0A3QXCFAgAABAgQIECBAgAABAgQIECBAgAABAgQIEDghIOiemGH9CEF3TTUfCrpj4USAAAECBAgQIECAAAECBAgQIECAAAECBAgQINAlIOh27SXoBnsJugGaKwQIECBAgAABAgQIECBAgAABAgQIECBAgAABAicEBN0TM6wfIeiuqeZDQXcsnAgQIECAAAECBAgQIECAAAECBAgQIECAAAECBLoEBN2uvQTdYC9BN0BzhQABAgQIECBAgAABAgQIECBAgAABAgQIECBA4ISAoHtihvUjBN011Xwo6I6FEwECBAgQIECAAAECBAgQIECAAAECBAgQIECAQJeAoNu1l6Ab7CXoBmiuECBAgAABAgQIECBAgAABAgQIECBAgAABAgQInBAQdE/MsH6EoLummg8F3bFwIkCAAAECBAgQIECAAAECBAgQIECAAAECBAgQ6BIQdLv2EnSDvQTdAM0VAgQIECBAgAABAgQIECBAgAABAgQIECBAgACBEwKC7okZ1o8QdNdU86GgOxZOBAgQIECAAAECBAgQIECAAAECBAgQIECAAAECXQKCbtdegm6wl6AboLlCgAABAgQIECBAgAABAgQIECBAgAABAgQIECBwQkDQPTHD+hGC7ppqPhR0x8KJAAECBAgQIECAAAECBAgQIECAAAECBAgQIECgS0DQ7dpL0A32EnQDNFcIECBAgAABAgQIECBAgAABAgQIECBAgAABAgROCAi6J2ZYP0LQXVPNh3/9+4/zD/87ffruu7f/+clfn774gy+OP/nGPxAgQIAAAQIECBAgQIAAAQIECBAgQIAAAQIECBBIBT58cfHDl//w9ufv//izP3t9/qc//PDFLcfrAoJusNA//vnxq1uvYPvx7T9eEffT23+8//3tzz7/89ex96t/gT8gQIAAAQIECBAgQIAAAQIECBAgQIAAAQIECBAg8I0Cr177Crnv//v/84f3f/7+9ee/8O/7/e++/4U/9UdXBQTdYJl//fvr/3/bj2+N9xV0P/435n7+50+f/+zt//b1jeC/2BUCBAgQIECAAAECBAgQIECAAAECBAgQIECAAAECXwi8gu33b332FW+/f6u6r/Mr7r6fX3//hXb729+8bvmrRUDQ/RWWesXa94D7VnR/fA+7n//+fn77s8+h91f4L/KvIECAAAECBAgQIECAAAECBAgQIECAAAECBAgQIPCFwOeQ+wq3H7774S3evv73FXPf//72Z++B94vvHfsEBN1fYTNB91dA9K8gQIAAAQIECBAgQIAAAQIECBAgQIAAAQIECBD4ZgFB95vJ6i4IunWTeTABAgQIECBAgAABAgQIECBAgAABAgQIECBAgAABAk8REHSfsrTfSYAAAQIECBAgQIAAAQIECBAgQIAAAQIECBAgQIBAnYCgWzeZBxMgQIAAAQIECBAgQIAAAQIECBAgQIAAAQIECBAg8BQBQfcpS/udBAgQIECAAAECBAgQIECAAAECBAgQIECAAAECBAjUCQi6dZN5MAECBAgQIECAAAECBAgQIECAAAECBAgQIECAAAECTxEQdJ+ytN9JgAABAgQIECBAgAABAgQIECBAgAABAgQIECBAgECdgKBbN5kHEyBAgAABAgQIECBAgAABAgQIECBAgAABAgQIECDwFAFB9ylL+50ECBAgQIAAAQIECBAgQIAAAQIECBAgQIAAAQIECNQJCLp1k3kwAQIECBAgQIAAAQIECBAgQIAAAQIECBAgQIAAAQJPERB0n7K030mAAAECBAgQIECAAAECBAgQIECAAAECBAgQIECAQJ2AoFs3mQcTIECAAAECBAgQIECAAAECBAgQIECAAAECBAgQIPAUAUH3KUv7nQQIECBAgAABAgQIECBAgAABAgQIECBAgAABAgQI1AkIunWTeTABAgQIECBAgAABAgQIECBAgAABAgQIECBAgAABAk8REHSfsrTfSYAAAQIECBAgQIAAAQIECBAgQIAAAQIECBAgQIBAnYCgWzeZBxMgQIAAAQIECBAgQIAAAQIECBAgQIAAAQIECBAg8BQBQfcpS/udBAgQIECAAAECBAgQIECAAAECBAgQIECAAAECBAjUCQi6z7tXJwAABttJREFUdZN5MAECBAgQIECAAAECBAgQIECAAAECBAgQIECAAAECTxEQdJ+ytN9JgAABAgQIECBAgAABAgQIECBAgAABAgQIECBAgECdgKBbN5kHEyBAgAABAgQIECBAgAABAgQIECBAgAABAgQIECDwFAFB9ylL+50ECBAgQIAAAQIECBAgQIAAAQIECBAgQIAAAQIECNQJCLp1k3kwAQIECBAgQIAAAQIECBAgQIAAAQIECBAgQIAAAQJPERB0n7K030mAAAECBAgQIECAAAECBAgQIECAAAECBAgQIECAQJ2AoFs3mQcTIECAAAECBAgQIECAAAECBAgQIECAAAECBAgQIPAUAUH3KUv7nQQIECBAgAABAgQIECBAgAABAgQIECBAgAABAgQI1AkIunWTeTABAgQIECBAgAABAgQIECBAgAABAgQIECBAgAABAk8REHSfsrTfSYAAAQIECBAgQIAAAQIECBAgQIAAAQIECBAgQIBAnYCgWzeZBxMgQIAAAQIECBAgQIAAAQIECBAgQIAAAQIECBAg8BQBQfcpS/udBAgQIECAAAECBAgQIECAAAECBAgQIECAAAECBAjUCQi6dZN5MAECBAgQIECAAAECBAgQIECAAAECBAgQIECAAAECTxEQdJ+ytN9JgAABAgQIECBAgAABAgQIECBAgAABAgQIECBAgECdgKBbN5kHEyBAgAABAgQIECBAgAABAgQIECBAgAABAgQIECDwFAFB9ylL+50ECBAgQIAAAQIECBAgQIAAAQIECBAgQIAAAQIECNQJCLp1k3kwAQIECBAgQIAAAQIECBAgQIAAAQIECBAgQIAAAQJPERB0n7K030mAAAECBAgQIECAAAECBAgQIECAAAECBAgQIECAQJ2AoFs3mQcTIECAAAECBAgQIECAAAECBAgQIECAAAECBAgQIPAUAUH3KUv7nQQIECBAgAABAgQIECBAgAABAgQIECBAgAABAgQI1AkIunWTeTABAgQIECBAgAABAgQIECBAgAABAgQIECBAgAABAk8REHSfsrTfSYAAAQIECBAgQIAAAQIECBAgQIAAAQIECBAgQIBAnYCgWzeZBxMgQIAAAQIECBAgQIAAAQIECBAgQIAAAQIECBAg8BQBQfcpS/udBAgQIECAAAECBAgQIECAAAECBAgQIECAAAECBAjUCQi6dZN5MAECBAgQIECAAAECBAgQIECAAAECBAgQIECAAAECTxEQdJ+ytN9JgAABAgQIECBAgAABAgQIECBAgAABAgQIECBAgECdgKBbN5kHEyBAgAABAgQIECBAgAABAgQIECBAgAABAgQIECDwFAFB9ylL+50ECBAgQIAAAQIECBAgQIAAAQIECBAgQIAAAQIECNQJCLp1k3kwAQIECBAgQIAAAQIECBAgQIAAAQIECBAgQIAAAQJPERB0n7K030mAAAECBAgQIECAAAECBAgQIECAAAECBAgQIECAQJ2AoFs3mQcTIECAAAECBAgQIECAAAECBAgQIECAAAECBAgQIPAUAUH3KUv7nQQIECBAgAABAgQIECBAgAABAgQIECBAgAABAgQI1AkIunWTeTABAgQIECBAgAABAgQIECBAgAABAgQIECBAgAABAk8REHSfsrTfSYAAAQIECBAgQIAAAQIECBAgQIAAAQIECBAgQIBAnYCgWzeZBxMgQIAAAQIECBAgQIAAAQIECBAgQIAAAQIECBAg8BQBQfcpS/udBAgQIECAAAECBAgQIECAAAECBAgQIECAAAECBAjUCQi6dZN5MAECBAgQIECAAAECBAgQIECAAAECBAgQIECAAAECTxEQdJ+ytN9JgAABAgQIECBAgAABAgQIECBAgAABAgQIECBAgECdgKBbN5kHEyBAgAABAgQIECBAgAABAgQIECBAgAABAgQIECDwFAFB9ylL+50ECBAgQIAAAQIECBAgQIAAAQIECBAgQIAAAQIECNQJCLp1k3kwAQIECBAgQIAAAQIECBAgQIAAAQIECBAgQIAAAQJPERB0n7K030mAAAECBAgQIECAAAECBAgQIECAAAECBAgQIECAQJ2AoFs3mQcTIECAAAECBAgQIECAAAECBAgQIECAAAECBAgQIPAUAUH3KUv7nQQIECBAgAABAgQIECBAgAABAgQIECBAgAABAgQI1AkIunWTeTABAgQIECBAgAABAgQIECBAgAABAgQIECBAgAABAk8REHSfsrTfSYAAAQIECBAgQIAAAQIECBAgQIAAAQIECBAgQIBAnYCgWzeZBxMgQIAAAQIECBAgQIAAAQIECBAgQIAAAQIECBAg8BSB/wAC80nNnmVuFAAAAABJRU5ErkJggg==;movable=0;resizable=0;rotatable=0;deletable=0;editable=0;locked=1;connectable=0;" parent="1" vertex="1">
          <mxGeometry x="970" y="110" width="2130.08" height="940" as="geometry" />
        </mxCell>
        <mxCell id="DRgmASofz9rqL_db7nKw-10" value="" style="whiteSpace=wrap;html=1;aspect=fixed;fillColor=#f5f5f5;fontColor=#333333;strokeColor=#666666;" parent="1" vertex="1">
          <mxGeometry x="1690" y="280" width="660" height="660" as="geometry" />
        </mxCell>
        <mxCell id="DRgmASofz9rqL_db7nKw-3" value="&lt;span style=&quot;font-size: 20px;&quot;&gt;Koordinaten der Raumstation&amp;nbsp;&lt;/span&gt;&lt;div&gt;&lt;span style=&quot;font-size: 20px;&quot;&gt;aus Internet&lt;/span&gt;&lt;/div&gt;" style="html=1;shadow=0;dashed=0;align=center;verticalAlign=middle;shape=mxgraph.arrows2.arrow;dy=0;dx=10;notch=0;" parent="1" vertex="1">
          <mxGeometry x="1110" y="410" width="290" height="80" as="geometry" />
        </mxCell>
        <mxCell id="DRgmASofz9rqL_db7nKw-5" value="&lt;span style=&quot;font-size: 20px; background-color: initial;&quot;&gt;Motor (Oben) =&amp;nbsp;&lt;/span&gt;&lt;div&gt;&lt;span style=&quot;font-size: 20px; background-color: initial;&quot;&gt;z-axis&amp;nbsp;&lt;/span&gt;&lt;span style=&quot;background-color: initial; font-size: 20px;&quot;&gt;Bewegung&lt;/span&gt;&lt;/div&gt;" style="html=1;shadow=0;dashed=0;align=center;verticalAlign=middle;shape=mxgraph.arrows2.arrow;dy=0;dx=10;notch=0;flipV=0;flipH=1;" parent="1" vertex="1">
          <mxGeometry x="2720" y="430" width="200" height="60" as="geometry" />
        </mxCell>
        <mxCell id="DRgmASofz9rqL_db7nKw-6" value="&lt;span style=&quot;font-size: 20px; background-color: initial;&quot;&gt;Motor (Unten)&lt;/span&gt;" style="html=1;shadow=0;dashed=0;align=center;verticalAlign=middle;shape=mxgraph.arrows2.arrow;dy=0;dx=10;notch=0;flipV=0;flipH=1;" parent="1" vertex="1">
          <mxGeometry x="2710" y="591.25" width="200" height="67.5" as="geometry" />
        </mxCell>
        <mxCell id="DRgmASofz9rqL_db7nKw-7" value="&lt;font style=&quot;font-size: 20px;&quot;&gt;Ein-Aus-&lt;/font&gt;&lt;div&gt;&lt;font style=&quot;font-size: 20px;&quot;&gt;Schalter&lt;/font&gt;&lt;/div&gt;" style="html=1;shadow=0;dashed=0;align=center;verticalAlign=middle;shape=mxgraph.arrows2.arrow;dy=0;dx=10;notch=0;" parent="1" vertex="1">
          <mxGeometry x="1390" y="880" width="120" height="60" as="geometry" />
        </mxCell>
        <mxCell id="DRgmASofz9rqL_db7nKw-8" value="&lt;font style=&quot;font-size: 20px;&quot;&gt;z-axis Bewegung&lt;/font&gt;" style="html=1;whiteSpace=wrap;fillColor=#dae8fc;strokeColor=#6c8ebf;" parent="1" vertex="1">
          <mxGeometry x="2020" y="420" width="300" height="80" as="geometry" />
        </mxCell>
        <mxCell id="DRgmASofz9rqL_db7nKw-26" style="edgeStyle=orthogonalEdgeStyle;rounded=0;orthogonalLoop=1;jettySize=auto;html=1;entryX=0.25;entryY=1;entryDx=0;entryDy=0;" parent="1" source="DRgmASofz9rqL_db7nKw-11" target="DRgmASofz9rqL_db7nKw-16" edge="1">
          <mxGeometry relative="1" as="geometry" />
        </mxCell>
        <mxCell id="DRgmASofz9rqL_db7nKw-11" value="&lt;span style=&quot;font-size: 20px;&quot;&gt;Anfangstand&amp;nbsp;&lt;/span&gt;&lt;div&gt;&lt;span style=&quot;font-size: 20px;&quot;&gt;der Motoren&lt;/span&gt;&lt;/div&gt;" style="html=1;shadow=0;dashed=0;align=center;verticalAlign=middle;shape=mxgraph.arrows2.arrow;dy=0;dx=10;notch=0;" parent="1" vertex="1">
          <mxGeometry x="1250" y="610" width="150" height="60" as="geometry" />
        </mxCell>
        <mxCell id="DRgmASofz9rqL_db7nKw-23" style="edgeStyle=orthogonalEdgeStyle;rounded=0;orthogonalLoop=1;jettySize=auto;html=1;" parent="1" source="DRgmASofz9rqL_db7nKw-12" target="DRgmASofz9rqL_db7nKw-16" edge="1">
          <mxGeometry relative="1" as="geometry" />
        </mxCell>
        <mxCell id="DRgmASofz9rqL_db7nKw-12" value="&lt;span style=&quot;font-size: 20px;&quot;&gt;Koordinaten des aktuellen Orts&amp;nbsp;&lt;/span&gt;&lt;div&gt;&lt;span style=&quot;font-size: 20px;&quot;&gt;aus Internet&lt;/span&gt;&lt;/div&gt;" style="html=1;shadow=0;dashed=0;align=center;verticalAlign=middle;shape=mxgraph.arrows2.arrow;dy=0;dx=10;notch=0;" parent="1" vertex="1">
          <mxGeometry x="1110" y="505" width="290" height="80" as="geometry" />
        </mxCell>
        <mxCell id="DRgmASofz9rqL_db7nKw-13" style="edgeStyle=orthogonalEdgeStyle;rounded=0;orthogonalLoop=1;jettySize=auto;html=1;entryX=0.002;entryY=0.954;entryDx=0;entryDy=0;entryPerimeter=0;" parent="1" source="DRgmASofz9rqL_db7nKw-7" target="DRgmASofz9rqL_db7nKw-10" edge="1">
          <mxGeometry relative="1" as="geometry">
            <mxPoint x="1650" y="910" as="targetPoint" />
          </mxGeometry>
        </mxCell>
        <mxCell id="DRgmASofz9rqL_db7nKw-14" value="&lt;span style=&quot;font-size: 20px;&quot;&gt;System aktiviert&lt;/span&gt;" style="text;html=1;align=center;verticalAlign=middle;whiteSpace=wrap;rounded=0;" parent="1" vertex="1">
          <mxGeometry x="1700" y="895" width="170" height="30" as="geometry" />
        </mxCell>
        <mxCell id="DRgmASofz9rqL_db7nKw-15" value="&lt;font style=&quot;font-size: 20px;&quot;&gt;x-y-axis Bewegung&lt;/font&gt;" style="html=1;whiteSpace=wrap;fillColor=#dae8fc;strokeColor=#6c8ebf;" parent="1" vertex="1">
          <mxGeometry x="2020" y="585" width="300" height="80" as="geometry" />
        </mxCell>
        <mxCell id="DRgmASofz9rqL_db7nKw-18" style="edgeStyle=orthogonalEdgeStyle;rounded=0;orthogonalLoop=1;jettySize=auto;html=1;exitX=0.5;exitY=0;exitDx=0;exitDy=0;entryX=0;entryY=0.5;entryDx=0;entryDy=0;" parent="1" source="DRgmASofz9rqL_db7nKw-16" target="DRgmASofz9rqL_db7nKw-8" edge="1">
          <mxGeometry relative="1" as="geometry" />
        </mxCell>
        <mxCell id="DRgmASofz9rqL_db7nKw-19" style="edgeStyle=orthogonalEdgeStyle;rounded=0;orthogonalLoop=1;jettySize=auto;html=1;" parent="1" source="DRgmASofz9rqL_db7nKw-16" target="DRgmASofz9rqL_db7nKw-15" edge="1">
          <mxGeometry relative="1" as="geometry">
            <Array as="points">
              <mxPoint x="1860" y="630" />
            </Array>
          </mxGeometry>
        </mxCell>
        <mxCell id="DRgmASofz9rqL_db7nKw-16" value="&lt;font style=&quot;font-size: 20px;&quot;&gt;Raumstation&amp;nbsp;&lt;/font&gt;&lt;div&gt;&lt;font style=&quot;font-size: 20px;&quot;&gt;zeigen&lt;/font&gt;&lt;/div&gt;" style="html=1;whiteSpace=wrap;fillColor=#dae8fc;strokeColor=#6c8ebf;" parent="1" vertex="1">
          <mxGeometry x="1780" y="505" width="160" height="80" as="geometry" />
        </mxCell>
        <mxCell id="DRgmASofz9rqL_db7nKw-20" style="edgeStyle=orthogonalEdgeStyle;rounded=0;orthogonalLoop=1;jettySize=auto;html=1;entryX=0.988;entryY=0.357;entryDx=0;entryDy=0;entryPerimeter=0;" parent="1" source="DRgmASofz9rqL_db7nKw-15" target="DRgmASofz9rqL_db7nKw-6" edge="1">
          <mxGeometry relative="1" as="geometry">
            <Array as="points">
              <mxPoint x="2712" y="625" />
            </Array>
          </mxGeometry>
        </mxCell>
        <mxCell id="DRgmASofz9rqL_db7nKw-21" style="edgeStyle=orthogonalEdgeStyle;rounded=0;orthogonalLoop=1;jettySize=auto;html=1;entryX=1;entryY=0.5;entryDx=0;entryDy=0;entryPerimeter=0;" parent="1" source="DRgmASofz9rqL_db7nKw-8" target="DRgmASofz9rqL_db7nKw-5" edge="1">
          <mxGeometry relative="1" as="geometry" />
        </mxCell>
        <mxCell id="DRgmASofz9rqL_db7nKw-24" style="edgeStyle=orthogonalEdgeStyle;rounded=0;orthogonalLoop=1;jettySize=auto;html=1;entryX=0.145;entryY=0.016;entryDx=0;entryDy=0;entryPerimeter=0;" parent="1" source="DRgmASofz9rqL_db7nKw-3" target="DRgmASofz9rqL_db7nKw-16" edge="1">
          <mxGeometry relative="1" as="geometry" />
        </mxCell>
      </root>
    </mxGraphModel>
  </diagram>
</mxfile>
